%TF.GenerationSoftware,KiCad,Pcbnew,7.0.7*%
%TF.CreationDate,2025-08-05T19:35:54-07:00*%
%TF.ProjectId,stm32,73746d33-322e-46b6-9963-61645f706362,rev?*%
%TF.SameCoordinates,Original*%
%TF.FileFunction,Paste,Top*%
%TF.FilePolarity,Positive*%
%FSLAX46Y46*%
G04 Gerber Fmt 4.6, Leading zero omitted, Abs format (unit mm)*
G04 Created by KiCad (PCBNEW 7.0.7) date 2025-08-05 19:35:54*
%MOMM*%
%LPD*%
G01*
G04 APERTURE LIST*
G04 Aperture macros list*
%AMRoundRect*
0 Rectangle with rounded corners*
0 $1 Rounding radius*
0 $2 $3 $4 $5 $6 $7 $8 $9 X,Y pos of 4 corners*
0 Add a 4 corners polygon primitive as box body*
4,1,4,$2,$3,$4,$5,$6,$7,$8,$9,$2,$3,0*
0 Add four circle primitives for the rounded corners*
1,1,$1+$1,$2,$3*
1,1,$1+$1,$4,$5*
1,1,$1+$1,$6,$7*
1,1,$1+$1,$8,$9*
0 Add four rect primitives between the rounded corners*
20,1,$1+$1,$2,$3,$4,$5,0*
20,1,$1+$1,$4,$5,$6,$7,0*
20,1,$1+$1,$6,$7,$8,$9,0*
20,1,$1+$1,$8,$9,$2,$3,0*%
G04 Aperture macros list end*
%ADD10RoundRect,0.140000X0.170000X-0.140000X0.170000X0.140000X-0.170000X0.140000X-0.170000X-0.140000X0*%
%ADD11R,0.800000X1.000000*%
%ADD12R,1.500000X0.700000*%
%ADD13RoundRect,0.218750X-0.256250X0.218750X-0.256250X-0.218750X0.256250X-0.218750X0.256250X0.218750X0*%
%ADD14RoundRect,0.135000X0.185000X-0.135000X0.185000X0.135000X-0.185000X0.135000X-0.185000X-0.135000X0*%
%ADD15RoundRect,0.140000X0.140000X0.170000X-0.140000X0.170000X-0.140000X-0.170000X0.140000X-0.170000X0*%
%ADD16RoundRect,0.135000X-0.135000X-0.185000X0.135000X-0.185000X0.135000X0.185000X-0.135000X0.185000X0*%
%ADD17RoundRect,0.250000X0.475000X-0.250000X0.475000X0.250000X-0.475000X0.250000X-0.475000X-0.250000X0*%
%ADD18R,1.300000X0.450000*%
%ADD19R,1.200000X1.400000*%
%ADD20RoundRect,0.250000X-0.250000X-0.475000X0.250000X-0.475000X0.250000X0.475000X-0.250000X0.475000X0*%
%ADD21RoundRect,0.135000X-0.185000X0.135000X-0.185000X-0.135000X0.185000X-0.135000X0.185000X0.135000X0*%
%ADD22RoundRect,0.140000X-0.140000X-0.170000X0.140000X-0.170000X0.140000X0.170000X-0.140000X0.170000X0*%
%ADD23R,1.500000X2.000000*%
%ADD24R,3.800000X2.000000*%
%ADD25RoundRect,0.075000X-0.662500X-0.075000X0.662500X-0.075000X0.662500X0.075000X-0.662500X0.075000X0*%
%ADD26RoundRect,0.075000X-0.075000X-0.662500X0.075000X-0.662500X0.075000X0.662500X-0.075000X0.662500X0*%
%ADD27RoundRect,0.225000X-0.225000X-0.250000X0.225000X-0.250000X0.225000X0.250000X-0.225000X0.250000X0*%
%ADD28RoundRect,0.140000X-0.170000X0.140000X-0.170000X-0.140000X0.170000X-0.140000X0.170000X0.140000X0*%
%ADD29RoundRect,0.135000X0.135000X0.185000X-0.135000X0.185000X-0.135000X-0.185000X0.135000X-0.185000X0*%
G04 APERTURE END LIST*
D10*
%TO.C,C6*%
X132849885Y-72252916D03*
X132849885Y-71292916D03*
%TD*%
D11*
%TO.C,SW1*%
X124699000Y-62562828D03*
X122489000Y-62562828D03*
X124699000Y-69862828D03*
X122489000Y-69862828D03*
D12*
X125349000Y-63962828D03*
X125349000Y-66962828D03*
X125349000Y-68462828D03*
%TD*%
D13*
%TO.C,FB1*%
X132877746Y-75199521D03*
X132877746Y-76774521D03*
%TD*%
D14*
%TO.C,R1*%
X127927254Y-65993647D03*
X127927254Y-64973647D03*
%TD*%
D13*
%TO.C,D1*%
X156198816Y-79583644D03*
X156198816Y-81158644D03*
%TD*%
D15*
%TO.C,C7*%
X131177594Y-75199521D03*
X130217594Y-75199521D03*
%TD*%
%TO.C,C3*%
X142185459Y-76787139D03*
X141225459Y-76787139D03*
%TD*%
D16*
%TO.C,R5*%
X136066077Y-80341650D03*
X137086077Y-80341650D03*
%TD*%
D17*
%TO.C,C13*%
X152953255Y-81037210D03*
X152953255Y-79137210D03*
%TD*%
D10*
%TO.C,C11*%
X131342197Y-71132185D03*
X131342197Y-70172185D03*
%TD*%
D18*
%TO.C,J1*%
X156349000Y-72620000D03*
X156349000Y-71970000D03*
X156349000Y-71320000D03*
X156349000Y-70670000D03*
X156349000Y-70020000D03*
%TD*%
D10*
%TO.C,C4*%
X132851103Y-68047977D03*
X132851103Y-67087977D03*
%TD*%
D15*
%TO.C,C8*%
X131228295Y-76821960D03*
X130268295Y-76821960D03*
%TD*%
D19*
%TO.C,Y1*%
X127911267Y-68658724D03*
X127911267Y-70858724D03*
X129611267Y-70858724D03*
X129611267Y-68658724D03*
%TD*%
D16*
%TO.C,R3*%
X157680423Y-77035026D03*
X158700423Y-77035026D03*
%TD*%
D20*
%TO.C,C12*%
X147150527Y-72988634D03*
X149050527Y-72988634D03*
%TD*%
D21*
%TO.C,R2*%
X147901653Y-68350863D03*
X147901653Y-69370863D03*
%TD*%
D10*
%TO.C,C10*%
X131302302Y-69138724D03*
X131302302Y-68178724D03*
%TD*%
D22*
%TO.C,C1*%
X135811543Y-64516000D03*
X136771543Y-64516000D03*
%TD*%
%TO.C,C9*%
X135875126Y-76682020D03*
X136835126Y-76682020D03*
%TD*%
D23*
%TO.C,U2*%
X150277955Y-75746566D03*
X147977955Y-75746566D03*
D24*
X147977955Y-82046566D03*
D23*
X145677955Y-75746566D03*
%TD*%
D25*
%TO.C,U1*%
X134635079Y-68021882D03*
X134635079Y-68521882D03*
X134635079Y-69021882D03*
X134635079Y-69521882D03*
X134635079Y-70021882D03*
X134635079Y-70521882D03*
X134635079Y-71021882D03*
X134635079Y-71521882D03*
X134635079Y-72021882D03*
X134635079Y-72521882D03*
X134635079Y-73021882D03*
X134635079Y-73521882D03*
D26*
X136047579Y-74934382D03*
X136547579Y-74934382D03*
X137047579Y-74934382D03*
X137547579Y-74934382D03*
X138047579Y-74934382D03*
X138547579Y-74934382D03*
X139047579Y-74934382D03*
X139547579Y-74934382D03*
X140047579Y-74934382D03*
X140547579Y-74934382D03*
X141047579Y-74934382D03*
X141547579Y-74934382D03*
D25*
X142960079Y-73521882D03*
X142960079Y-73021882D03*
X142960079Y-72521882D03*
X142960079Y-72021882D03*
X142960079Y-71521882D03*
X142960079Y-71021882D03*
X142960079Y-70521882D03*
X142960079Y-70021882D03*
X142960079Y-69521882D03*
X142960079Y-69021882D03*
X142960079Y-68521882D03*
X142960079Y-68021882D03*
D26*
X141547579Y-66609382D03*
X141047579Y-66609382D03*
X140547579Y-66609382D03*
X140047579Y-66609382D03*
X139547579Y-66609382D03*
X139047579Y-66609382D03*
X138547579Y-66609382D03*
X138047579Y-66609382D03*
X137547579Y-66609382D03*
X137047579Y-66609382D03*
X136547579Y-66609382D03*
X136047579Y-66609382D03*
%TD*%
D27*
%TO.C,C5*%
X135469798Y-62992000D03*
X137019798Y-62992000D03*
%TD*%
D28*
%TO.C,C2*%
X144949262Y-67768144D03*
X144949262Y-68728144D03*
%TD*%
D29*
%TO.C,R4*%
X134658961Y-80353970D03*
X133638961Y-80353970D03*
%TD*%
M02*
