M48
; DRILL file {KiCad 7.0.7} date 2025 August 05, Tuesday 19:35:48
; FORMAT={-:-/ absolute / metric / decimal}
; #@! TF.CreationDate,2025-08-05T19:35:48-07:00
; #@! TF.GenerationSoftware,Kicad,Pcbnew,7.0.7
; #@! TF.FileFunction,MixedPlating,1,2
FMAT,2
METRIC
; #@! TA.AperFunction,Plated,PTH,ViaDrill
T1C0.400
; #@! TA.AperFunction,Plated,PTH,ComponentDrill
T2C0.550
; #@! TA.AperFunction,Plated,PTH,ComponentDrill
T3C0.850
; #@! TA.AperFunction,Plated,PTH,ComponentDrill
T4C1.000
; #@! TA.AperFunction,NonPlated,NPTH,ComponentDrill
T5C0.800
; #@! TA.AperFunction,NonPlated,NPTH,ComponentDrill
T6C0.900
; #@! TA.AperFunction,NonPlated,NPTH,ComponentDrill
T7C2.200
%
G90
G05
T1
X127.031Y-63.956
X127.926Y-72.289
X129.738Y-67.18
X130.148Y-74.068
X130.249Y-78.01
X131.303Y-67.111
X132.266Y-69.931
X132.81Y-81.794
X132.858Y-66.022
X134.388Y-81.794
X136.281Y-71.519
X136.554Y-68.204
X136.847Y-78.778
X138.072Y-76.655
X139.128Y-78.747
X141.054Y-73.106
X146.225Y-68.792
X149.846Y-77.587
X150.359Y-72.566
X150.359Y-73.509
X150.775Y-77.587
X154.629Y-79.085
X154.976Y-70.036
X158.685Y-76.116
X158.685Y-77.955
X159.981Y-77.043
T4
X131.772Y-58.783
X131.947Y-83.913
X134.312Y-58.783
X134.487Y-83.913
X136.852Y-58.783
X137.027Y-83.913
X139.392Y-58.783
X139.567Y-83.913
X145.19Y-58.753
X147.73Y-58.753
X150.27Y-58.753
X152.81Y-58.753
T5
X157.449Y-68.82
X157.449Y-73.82
T6
X123.589Y-64.713
X123.589Y-67.713
T7
X124.46Y-58.82
X124.46Y-83.82
X159.46Y-58.82
X159.46Y-83.82
T2
G00X159.874Y-67.445
M15
G01X160.524Y-67.445
M16
G05
G00X159.874Y-75.195
M15
G01X160.524Y-75.195
M16
G05
T3
G00X156.124Y-67.595
M15
G01X156.674Y-67.595
M16
G05
G00X156.124Y-75.045
M15
G01X156.674Y-75.045
M16
G05
T0
M30
