%TF.GenerationSoftware,KiCad,Pcbnew,7.0.7*%
%TF.CreationDate,2025-08-05T19:35:54-07:00*%
%TF.ProjectId,stm32,73746d33-322e-46b6-9963-61645f706362,rev?*%
%TF.SameCoordinates,Original*%
%TF.FileFunction,Legend,Bot*%
%TF.FilePolarity,Positive*%
%FSLAX46Y46*%
G04 Gerber Fmt 4.6, Leading zero omitted, Abs format (unit mm)*
G04 Created by KiCad (PCBNEW 7.0.7) date 2025-08-05 19:35:54*
%MOMM*%
%LPD*%
G01*
G04 APERTURE LIST*
%ADD10C,0.200000*%
G04 APERTURE END LIST*
D10*
X155611187Y-81701887D02*
X155134997Y-81701887D01*
X155706425Y-81987602D02*
X155373092Y-80987602D01*
X155373092Y-80987602D02*
X155039759Y-81987602D01*
X154706425Y-81320935D02*
X154706425Y-81987602D01*
X154706425Y-81416173D02*
X154658806Y-81368554D01*
X154658806Y-81368554D02*
X154563568Y-81320935D01*
X154563568Y-81320935D02*
X154420711Y-81320935D01*
X154420711Y-81320935D02*
X154325473Y-81368554D01*
X154325473Y-81368554D02*
X154277854Y-81463792D01*
X154277854Y-81463792D02*
X154277854Y-81987602D01*
X153373092Y-81987602D02*
X153373092Y-80987602D01*
X153373092Y-81939983D02*
X153468330Y-81987602D01*
X153468330Y-81987602D02*
X153658806Y-81987602D01*
X153658806Y-81987602D02*
X153754044Y-81939983D01*
X153754044Y-81939983D02*
X153801663Y-81892363D01*
X153801663Y-81892363D02*
X153849282Y-81797125D01*
X153849282Y-81797125D02*
X153849282Y-81511411D01*
X153849282Y-81511411D02*
X153801663Y-81416173D01*
X153801663Y-81416173D02*
X153754044Y-81368554D01*
X153754044Y-81368554D02*
X153658806Y-81320935D01*
X153658806Y-81320935D02*
X153468330Y-81320935D01*
X153468330Y-81320935D02*
X153373092Y-81368554D01*
X152896901Y-81987602D02*
X152896901Y-81320935D01*
X152896901Y-81511411D02*
X152849282Y-81416173D01*
X152849282Y-81416173D02*
X152801663Y-81368554D01*
X152801663Y-81368554D02*
X152706425Y-81320935D01*
X152706425Y-81320935D02*
X152611187Y-81320935D01*
X151896901Y-81939983D02*
X151992139Y-81987602D01*
X151992139Y-81987602D02*
X152182615Y-81987602D01*
X152182615Y-81987602D02*
X152277853Y-81939983D01*
X152277853Y-81939983D02*
X152325472Y-81844744D01*
X152325472Y-81844744D02*
X152325472Y-81463792D01*
X152325472Y-81463792D02*
X152277853Y-81368554D01*
X152277853Y-81368554D02*
X152182615Y-81320935D01*
X152182615Y-81320935D02*
X151992139Y-81320935D01*
X151992139Y-81320935D02*
X151896901Y-81368554D01*
X151896901Y-81368554D02*
X151849282Y-81463792D01*
X151849282Y-81463792D02*
X151849282Y-81559030D01*
X151849282Y-81559030D02*
X152325472Y-81654268D01*
X151515948Y-81320935D02*
X151325472Y-81987602D01*
X151325472Y-81987602D02*
X151134996Y-81511411D01*
X151134996Y-81511411D02*
X150944520Y-81987602D01*
X150944520Y-81987602D02*
X150754044Y-81320935D01*
X149039758Y-81892363D02*
X149087377Y-81939983D01*
X149087377Y-81939983D02*
X149230234Y-81987602D01*
X149230234Y-81987602D02*
X149325472Y-81987602D01*
X149325472Y-81987602D02*
X149468329Y-81939983D01*
X149468329Y-81939983D02*
X149563567Y-81844744D01*
X149563567Y-81844744D02*
X149611186Y-81749506D01*
X149611186Y-81749506D02*
X149658805Y-81559030D01*
X149658805Y-81559030D02*
X149658805Y-81416173D01*
X149658805Y-81416173D02*
X149611186Y-81225697D01*
X149611186Y-81225697D02*
X149563567Y-81130459D01*
X149563567Y-81130459D02*
X149468329Y-81035221D01*
X149468329Y-81035221D02*
X149325472Y-80987602D01*
X149325472Y-80987602D02*
X149230234Y-80987602D01*
X149230234Y-80987602D02*
X149087377Y-81035221D01*
X149087377Y-81035221D02*
X149039758Y-81082840D01*
X148611186Y-81987602D02*
X148611186Y-80987602D01*
X148182615Y-81987602D02*
X148182615Y-81463792D01*
X148182615Y-81463792D02*
X148230234Y-81368554D01*
X148230234Y-81368554D02*
X148325472Y-81320935D01*
X148325472Y-81320935D02*
X148468329Y-81320935D01*
X148468329Y-81320935D02*
X148563567Y-81368554D01*
X148563567Y-81368554D02*
X148611186Y-81416173D01*
X147325472Y-81939983D02*
X147420710Y-81987602D01*
X147420710Y-81987602D02*
X147611186Y-81987602D01*
X147611186Y-81987602D02*
X147706424Y-81939983D01*
X147706424Y-81939983D02*
X147754043Y-81844744D01*
X147754043Y-81844744D02*
X147754043Y-81463792D01*
X147754043Y-81463792D02*
X147706424Y-81368554D01*
X147706424Y-81368554D02*
X147611186Y-81320935D01*
X147611186Y-81320935D02*
X147420710Y-81320935D01*
X147420710Y-81320935D02*
X147325472Y-81368554D01*
X147325472Y-81368554D02*
X147277853Y-81463792D01*
X147277853Y-81463792D02*
X147277853Y-81559030D01*
X147277853Y-81559030D02*
X147754043Y-81654268D01*
X146849281Y-81320935D02*
X146849281Y-81987602D01*
X146849281Y-81416173D02*
X146801662Y-81368554D01*
X146801662Y-81368554D02*
X146706424Y-81320935D01*
X146706424Y-81320935D02*
X146563567Y-81320935D01*
X146563567Y-81320935D02*
X146468329Y-81368554D01*
X146468329Y-81368554D02*
X146420710Y-81463792D01*
X146420710Y-81463792D02*
X146420710Y-81987602D01*
X155611187Y-83549983D02*
X155468330Y-83597602D01*
X155468330Y-83597602D02*
X155230235Y-83597602D01*
X155230235Y-83597602D02*
X155134997Y-83549983D01*
X155134997Y-83549983D02*
X155087378Y-83502363D01*
X155087378Y-83502363D02*
X155039759Y-83407125D01*
X155039759Y-83407125D02*
X155039759Y-83311887D01*
X155039759Y-83311887D02*
X155087378Y-83216649D01*
X155087378Y-83216649D02*
X155134997Y-83169030D01*
X155134997Y-83169030D02*
X155230235Y-83121411D01*
X155230235Y-83121411D02*
X155420711Y-83073792D01*
X155420711Y-83073792D02*
X155515949Y-83026173D01*
X155515949Y-83026173D02*
X155563568Y-82978554D01*
X155563568Y-82978554D02*
X155611187Y-82883316D01*
X155611187Y-82883316D02*
X155611187Y-82788078D01*
X155611187Y-82788078D02*
X155563568Y-82692840D01*
X155563568Y-82692840D02*
X155515949Y-82645221D01*
X155515949Y-82645221D02*
X155420711Y-82597602D01*
X155420711Y-82597602D02*
X155182616Y-82597602D01*
X155182616Y-82597602D02*
X155039759Y-82645221D01*
X154754044Y-82597602D02*
X154182616Y-82597602D01*
X154468330Y-83597602D02*
X154468330Y-82597602D01*
X153849282Y-83597602D02*
X153849282Y-82597602D01*
X153849282Y-82597602D02*
X153515949Y-83311887D01*
X153515949Y-83311887D02*
X153182616Y-82597602D01*
X153182616Y-82597602D02*
X153182616Y-83597602D01*
X152801663Y-82597602D02*
X152182616Y-82597602D01*
X152182616Y-82597602D02*
X152515949Y-82978554D01*
X152515949Y-82978554D02*
X152373092Y-82978554D01*
X152373092Y-82978554D02*
X152277854Y-83026173D01*
X152277854Y-83026173D02*
X152230235Y-83073792D01*
X152230235Y-83073792D02*
X152182616Y-83169030D01*
X152182616Y-83169030D02*
X152182616Y-83407125D01*
X152182616Y-83407125D02*
X152230235Y-83502363D01*
X152230235Y-83502363D02*
X152277854Y-83549983D01*
X152277854Y-83549983D02*
X152373092Y-83597602D01*
X152373092Y-83597602D02*
X152658806Y-83597602D01*
X152658806Y-83597602D02*
X152754044Y-83549983D01*
X152754044Y-83549983D02*
X152801663Y-83502363D01*
X151801663Y-82692840D02*
X151754044Y-82645221D01*
X151754044Y-82645221D02*
X151658806Y-82597602D01*
X151658806Y-82597602D02*
X151420711Y-82597602D01*
X151420711Y-82597602D02*
X151325473Y-82645221D01*
X151325473Y-82645221D02*
X151277854Y-82692840D01*
X151277854Y-82692840D02*
X151230235Y-82788078D01*
X151230235Y-82788078D02*
X151230235Y-82883316D01*
X151230235Y-82883316D02*
X151277854Y-83026173D01*
X151277854Y-83026173D02*
X151849282Y-83597602D01*
X151849282Y-83597602D02*
X151230235Y-83597602D01*
X150039758Y-83597602D02*
X150039758Y-82597602D01*
X150039758Y-82597602D02*
X149801663Y-82597602D01*
X149801663Y-82597602D02*
X149658806Y-82645221D01*
X149658806Y-82645221D02*
X149563568Y-82740459D01*
X149563568Y-82740459D02*
X149515949Y-82835697D01*
X149515949Y-82835697D02*
X149468330Y-83026173D01*
X149468330Y-83026173D02*
X149468330Y-83169030D01*
X149468330Y-83169030D02*
X149515949Y-83359506D01*
X149515949Y-83359506D02*
X149563568Y-83454744D01*
X149563568Y-83454744D02*
X149658806Y-83549983D01*
X149658806Y-83549983D02*
X149801663Y-83597602D01*
X149801663Y-83597602D02*
X150039758Y-83597602D01*
X148658806Y-83549983D02*
X148754044Y-83597602D01*
X148754044Y-83597602D02*
X148944520Y-83597602D01*
X148944520Y-83597602D02*
X149039758Y-83549983D01*
X149039758Y-83549983D02*
X149087377Y-83454744D01*
X149087377Y-83454744D02*
X149087377Y-83073792D01*
X149087377Y-83073792D02*
X149039758Y-82978554D01*
X149039758Y-82978554D02*
X148944520Y-82930935D01*
X148944520Y-82930935D02*
X148754044Y-82930935D01*
X148754044Y-82930935D02*
X148658806Y-82978554D01*
X148658806Y-82978554D02*
X148611187Y-83073792D01*
X148611187Y-83073792D02*
X148611187Y-83169030D01*
X148611187Y-83169030D02*
X149087377Y-83264268D01*
X148277853Y-82930935D02*
X148039758Y-83597602D01*
X148039758Y-83597602D02*
X147801663Y-82930935D01*
X147087377Y-83073792D02*
X146944520Y-83121411D01*
X146944520Y-83121411D02*
X146896901Y-83169030D01*
X146896901Y-83169030D02*
X146849282Y-83264268D01*
X146849282Y-83264268D02*
X146849282Y-83407125D01*
X146849282Y-83407125D02*
X146896901Y-83502363D01*
X146896901Y-83502363D02*
X146944520Y-83549983D01*
X146944520Y-83549983D02*
X147039758Y-83597602D01*
X147039758Y-83597602D02*
X147420710Y-83597602D01*
X147420710Y-83597602D02*
X147420710Y-82597602D01*
X147420710Y-82597602D02*
X147087377Y-82597602D01*
X147087377Y-82597602D02*
X146992139Y-82645221D01*
X146992139Y-82645221D02*
X146944520Y-82692840D01*
X146944520Y-82692840D02*
X146896901Y-82788078D01*
X146896901Y-82788078D02*
X146896901Y-82883316D01*
X146896901Y-82883316D02*
X146944520Y-82978554D01*
X146944520Y-82978554D02*
X146992139Y-83026173D01*
X146992139Y-83026173D02*
X147087377Y-83073792D01*
X147087377Y-83073792D02*
X147420710Y-83073792D01*
X146277853Y-83597602D02*
X146373091Y-83549983D01*
X146373091Y-83549983D02*
X146420710Y-83502363D01*
X146420710Y-83502363D02*
X146468329Y-83407125D01*
X146468329Y-83407125D02*
X146468329Y-83121411D01*
X146468329Y-83121411D02*
X146420710Y-83026173D01*
X146420710Y-83026173D02*
X146373091Y-82978554D01*
X146373091Y-82978554D02*
X146277853Y-82930935D01*
X146277853Y-82930935D02*
X146134996Y-82930935D01*
X146134996Y-82930935D02*
X146039758Y-82978554D01*
X146039758Y-82978554D02*
X145992139Y-83026173D01*
X145992139Y-83026173D02*
X145944520Y-83121411D01*
X145944520Y-83121411D02*
X145944520Y-83407125D01*
X145944520Y-83407125D02*
X145992139Y-83502363D01*
X145992139Y-83502363D02*
X146039758Y-83549983D01*
X146039758Y-83549983D02*
X146134996Y-83597602D01*
X146134996Y-83597602D02*
X146277853Y-83597602D01*
X145087377Y-83597602D02*
X145087377Y-83073792D01*
X145087377Y-83073792D02*
X145134996Y-82978554D01*
X145134996Y-82978554D02*
X145230234Y-82930935D01*
X145230234Y-82930935D02*
X145420710Y-82930935D01*
X145420710Y-82930935D02*
X145515948Y-82978554D01*
X145087377Y-83549983D02*
X145182615Y-83597602D01*
X145182615Y-83597602D02*
X145420710Y-83597602D01*
X145420710Y-83597602D02*
X145515948Y-83549983D01*
X145515948Y-83549983D02*
X145563567Y-83454744D01*
X145563567Y-83454744D02*
X145563567Y-83359506D01*
X145563567Y-83359506D02*
X145515948Y-83264268D01*
X145515948Y-83264268D02*
X145420710Y-83216649D01*
X145420710Y-83216649D02*
X145182615Y-83216649D01*
X145182615Y-83216649D02*
X145087377Y-83169030D01*
X144611186Y-83597602D02*
X144611186Y-82930935D01*
X144611186Y-83121411D02*
X144563567Y-83026173D01*
X144563567Y-83026173D02*
X144515948Y-82978554D01*
X144515948Y-82978554D02*
X144420710Y-82930935D01*
X144420710Y-82930935D02*
X144325472Y-82930935D01*
X143563567Y-83597602D02*
X143563567Y-82597602D01*
X143563567Y-83549983D02*
X143658805Y-83597602D01*
X143658805Y-83597602D02*
X143849281Y-83597602D01*
X143849281Y-83597602D02*
X143944519Y-83549983D01*
X143944519Y-83549983D02*
X143992138Y-83502363D01*
X143992138Y-83502363D02*
X144039757Y-83407125D01*
X144039757Y-83407125D02*
X144039757Y-83121411D01*
X144039757Y-83121411D02*
X143992138Y-83026173D01*
X143992138Y-83026173D02*
X143944519Y-82978554D01*
X143944519Y-82978554D02*
X143849281Y-82930935D01*
X143849281Y-82930935D02*
X143658805Y-82930935D01*
X143658805Y-82930935D02*
X143563567Y-82978554D01*
X155611187Y-84921887D02*
X155134997Y-84921887D01*
X155706425Y-85207602D02*
X155373092Y-84207602D01*
X155373092Y-84207602D02*
X155039759Y-85207602D01*
X154277854Y-84540935D02*
X154277854Y-85207602D01*
X154706425Y-84540935D02*
X154706425Y-85064744D01*
X154706425Y-85064744D02*
X154658806Y-85159983D01*
X154658806Y-85159983D02*
X154563568Y-85207602D01*
X154563568Y-85207602D02*
X154420711Y-85207602D01*
X154420711Y-85207602D02*
X154325473Y-85159983D01*
X154325473Y-85159983D02*
X154277854Y-85112363D01*
X153373092Y-84540935D02*
X153373092Y-85350459D01*
X153373092Y-85350459D02*
X153420711Y-85445697D01*
X153420711Y-85445697D02*
X153468330Y-85493316D01*
X153468330Y-85493316D02*
X153563568Y-85540935D01*
X153563568Y-85540935D02*
X153706425Y-85540935D01*
X153706425Y-85540935D02*
X153801663Y-85493316D01*
X153373092Y-85159983D02*
X153468330Y-85207602D01*
X153468330Y-85207602D02*
X153658806Y-85207602D01*
X153658806Y-85207602D02*
X153754044Y-85159983D01*
X153754044Y-85159983D02*
X153801663Y-85112363D01*
X153801663Y-85112363D02*
X153849282Y-85017125D01*
X153849282Y-85017125D02*
X153849282Y-84731411D01*
X153849282Y-84731411D02*
X153801663Y-84636173D01*
X153801663Y-84636173D02*
X153754044Y-84588554D01*
X153754044Y-84588554D02*
X153658806Y-84540935D01*
X153658806Y-84540935D02*
X153468330Y-84540935D01*
X153468330Y-84540935D02*
X153373092Y-84588554D01*
X152468330Y-84540935D02*
X152468330Y-85207602D01*
X152896901Y-84540935D02*
X152896901Y-85064744D01*
X152896901Y-85064744D02*
X152849282Y-85159983D01*
X152849282Y-85159983D02*
X152754044Y-85207602D01*
X152754044Y-85207602D02*
X152611187Y-85207602D01*
X152611187Y-85207602D02*
X152515949Y-85159983D01*
X152515949Y-85159983D02*
X152468330Y-85112363D01*
X152039758Y-85159983D02*
X151944520Y-85207602D01*
X151944520Y-85207602D02*
X151754044Y-85207602D01*
X151754044Y-85207602D02*
X151658806Y-85159983D01*
X151658806Y-85159983D02*
X151611187Y-85064744D01*
X151611187Y-85064744D02*
X151611187Y-85017125D01*
X151611187Y-85017125D02*
X151658806Y-84921887D01*
X151658806Y-84921887D02*
X151754044Y-84874268D01*
X151754044Y-84874268D02*
X151896901Y-84874268D01*
X151896901Y-84874268D02*
X151992139Y-84826649D01*
X151992139Y-84826649D02*
X152039758Y-84731411D01*
X152039758Y-84731411D02*
X152039758Y-84683792D01*
X152039758Y-84683792D02*
X151992139Y-84588554D01*
X151992139Y-84588554D02*
X151896901Y-84540935D01*
X151896901Y-84540935D02*
X151754044Y-84540935D01*
X151754044Y-84540935D02*
X151658806Y-84588554D01*
X151325472Y-84540935D02*
X150944520Y-84540935D01*
X151182615Y-84207602D02*
X151182615Y-85064744D01*
X151182615Y-85064744D02*
X151134996Y-85159983D01*
X151134996Y-85159983D02*
X151039758Y-85207602D01*
X151039758Y-85207602D02*
X150944520Y-85207602D01*
X149373091Y-84207602D02*
X149849281Y-84207602D01*
X149849281Y-84207602D02*
X149896900Y-84683792D01*
X149896900Y-84683792D02*
X149849281Y-84636173D01*
X149849281Y-84636173D02*
X149754043Y-84588554D01*
X149754043Y-84588554D02*
X149515948Y-84588554D01*
X149515948Y-84588554D02*
X149420710Y-84636173D01*
X149420710Y-84636173D02*
X149373091Y-84683792D01*
X149373091Y-84683792D02*
X149325472Y-84779030D01*
X149325472Y-84779030D02*
X149325472Y-85017125D01*
X149325472Y-85017125D02*
X149373091Y-85112363D01*
X149373091Y-85112363D02*
X149420710Y-85159983D01*
X149420710Y-85159983D02*
X149515948Y-85207602D01*
X149515948Y-85207602D02*
X149754043Y-85207602D01*
X149754043Y-85207602D02*
X149849281Y-85159983D01*
X149849281Y-85159983D02*
X149896900Y-85112363D01*
X149039757Y-84540935D02*
X148658805Y-84540935D01*
X148896900Y-84207602D02*
X148896900Y-85064744D01*
X148896900Y-85064744D02*
X148849281Y-85159983D01*
X148849281Y-85159983D02*
X148754043Y-85207602D01*
X148754043Y-85207602D02*
X148658805Y-85207602D01*
X148325471Y-85207602D02*
X148325471Y-84207602D01*
X147896900Y-85207602D02*
X147896900Y-84683792D01*
X147896900Y-84683792D02*
X147944519Y-84588554D01*
X147944519Y-84588554D02*
X148039757Y-84540935D01*
X148039757Y-84540935D02*
X148182614Y-84540935D01*
X148182614Y-84540935D02*
X148277852Y-84588554D01*
X148277852Y-84588554D02*
X148325471Y-84636173D01*
X147373090Y-85159983D02*
X147373090Y-85207602D01*
X147373090Y-85207602D02*
X147420709Y-85302840D01*
X147420709Y-85302840D02*
X147468328Y-85350459D01*
X146230233Y-84302840D02*
X146182614Y-84255221D01*
X146182614Y-84255221D02*
X146087376Y-84207602D01*
X146087376Y-84207602D02*
X145849281Y-84207602D01*
X145849281Y-84207602D02*
X145754043Y-84255221D01*
X145754043Y-84255221D02*
X145706424Y-84302840D01*
X145706424Y-84302840D02*
X145658805Y-84398078D01*
X145658805Y-84398078D02*
X145658805Y-84493316D01*
X145658805Y-84493316D02*
X145706424Y-84636173D01*
X145706424Y-84636173D02*
X146277852Y-85207602D01*
X146277852Y-85207602D02*
X145658805Y-85207602D01*
X145039757Y-84207602D02*
X144944519Y-84207602D01*
X144944519Y-84207602D02*
X144849281Y-84255221D01*
X144849281Y-84255221D02*
X144801662Y-84302840D01*
X144801662Y-84302840D02*
X144754043Y-84398078D01*
X144754043Y-84398078D02*
X144706424Y-84588554D01*
X144706424Y-84588554D02*
X144706424Y-84826649D01*
X144706424Y-84826649D02*
X144754043Y-85017125D01*
X144754043Y-85017125D02*
X144801662Y-85112363D01*
X144801662Y-85112363D02*
X144849281Y-85159983D01*
X144849281Y-85159983D02*
X144944519Y-85207602D01*
X144944519Y-85207602D02*
X145039757Y-85207602D01*
X145039757Y-85207602D02*
X145134995Y-85159983D01*
X145134995Y-85159983D02*
X145182614Y-85112363D01*
X145182614Y-85112363D02*
X145230233Y-85017125D01*
X145230233Y-85017125D02*
X145277852Y-84826649D01*
X145277852Y-84826649D02*
X145277852Y-84588554D01*
X145277852Y-84588554D02*
X145230233Y-84398078D01*
X145230233Y-84398078D02*
X145182614Y-84302840D01*
X145182614Y-84302840D02*
X145134995Y-84255221D01*
X145134995Y-84255221D02*
X145039757Y-84207602D01*
X144325471Y-84302840D02*
X144277852Y-84255221D01*
X144277852Y-84255221D02*
X144182614Y-84207602D01*
X144182614Y-84207602D02*
X143944519Y-84207602D01*
X143944519Y-84207602D02*
X143849281Y-84255221D01*
X143849281Y-84255221D02*
X143801662Y-84302840D01*
X143801662Y-84302840D02*
X143754043Y-84398078D01*
X143754043Y-84398078D02*
X143754043Y-84493316D01*
X143754043Y-84493316D02*
X143801662Y-84636173D01*
X143801662Y-84636173D02*
X144373090Y-85207602D01*
X144373090Y-85207602D02*
X143754043Y-85207602D01*
X142849281Y-84207602D02*
X143325471Y-84207602D01*
X143325471Y-84207602D02*
X143373090Y-84683792D01*
X143373090Y-84683792D02*
X143325471Y-84636173D01*
X143325471Y-84636173D02*
X143230233Y-84588554D01*
X143230233Y-84588554D02*
X142992138Y-84588554D01*
X142992138Y-84588554D02*
X142896900Y-84636173D01*
X142896900Y-84636173D02*
X142849281Y-84683792D01*
X142849281Y-84683792D02*
X142801662Y-84779030D01*
X142801662Y-84779030D02*
X142801662Y-85017125D01*
X142801662Y-85017125D02*
X142849281Y-85112363D01*
X142849281Y-85112363D02*
X142896900Y-85159983D01*
X142896900Y-85159983D02*
X142992138Y-85207602D01*
X142992138Y-85207602D02*
X143230233Y-85207602D01*
X143230233Y-85207602D02*
X143325471Y-85159983D01*
X143325471Y-85159983D02*
X143373090Y-85112363D01*
M02*
