%TF.GenerationSoftware,KiCad,Pcbnew,7.0.7*%
%TF.CreationDate,2025-08-05T19:35:54-07:00*%
%TF.ProjectId,stm32,73746d33-322e-46b6-9963-61645f706362,rev?*%
%TF.SameCoordinates,Original*%
%TF.FileFunction,Copper,L2,Bot*%
%TF.FilePolarity,Positive*%
%FSLAX46Y46*%
G04 Gerber Fmt 4.6, Leading zero omitted, Abs format (unit mm)*
G04 Created by KiCad (PCBNEW 7.0.7) date 2025-08-05 19:35:54*
%MOMM*%
%LPD*%
G01*
G04 APERTURE LIST*
%TA.AperFunction,ComponentPad*%
%ADD10R,1.700000X1.700000*%
%TD*%
%TA.AperFunction,ComponentPad*%
%ADD11O,1.700000X1.700000*%
%TD*%
%TA.AperFunction,ComponentPad*%
%ADD12O,1.800000X1.150000*%
%TD*%
%TA.AperFunction,ComponentPad*%
%ADD13O,2.000000X1.450000*%
%TD*%
%TA.AperFunction,ViaPad*%
%ADD14C,0.800000*%
%TD*%
%TA.AperFunction,Conductor*%
%ADD15C,0.500000*%
%TD*%
G04 APERTURE END LIST*
D10*
%TO.P,J2,1,Pin_1*%
%TO.N,+3.3V*%
X139392013Y-58783153D03*
D11*
%TO.P,J2,2,Pin_2*%
%TO.N,/USART1_TX*%
X136852013Y-58783153D03*
%TO.P,J2,3,Pin_3*%
%TO.N,/UART1_RX*%
X134312013Y-58783153D03*
%TO.P,J2,4,Pin_4*%
%TO.N,GND*%
X131772013Y-58783153D03*
%TD*%
D10*
%TO.P,J4,1,Pin_1*%
%TO.N,+3.3V*%
X131947324Y-83913371D03*
D11*
%TO.P,J4,2,Pin_2*%
%TO.N,/I2C_SCL*%
X134487324Y-83913371D03*
%TO.P,J4,3,Pin_3*%
%TO.N,/I2C_SDA*%
X137027324Y-83913371D03*
%TO.P,J4,4,Pin_4*%
%TO.N,GND*%
X139567324Y-83913371D03*
%TD*%
D12*
%TO.P,J1,6,Shield*%
%TO.N,unconnected-(J1-Shield-Pad6)*%
X160199000Y-75195000D03*
D13*
X156399000Y-75045000D03*
X156399000Y-67595000D03*
D12*
X160199000Y-67445000D03*
%TD*%
D10*
%TO.P,J3,1,Pin_1*%
%TO.N,+3.3V*%
X152810290Y-58753394D03*
D11*
%TO.P,J3,2,Pin_2*%
%TO.N,/SWDIO*%
X150270290Y-58753394D03*
%TO.P,J3,3,Pin_3*%
%TO.N,/SWCLK*%
X147730290Y-58753394D03*
%TO.P,J3,4,Pin_4*%
%TO.N,GND*%
X145190290Y-58753394D03*
%TD*%
D14*
%TO.N,+3.3V*%
X136847396Y-78778132D03*
X139127989Y-78747216D03*
X158685233Y-76115526D03*
X132810089Y-81793588D03*
X134388461Y-81793588D03*
X158685233Y-77954526D03*
%TO.N,GND*%
X150775405Y-77586977D03*
X146225024Y-68792080D03*
X149846130Y-77586977D03*
X127031444Y-63955942D03*
X130249325Y-78010408D03*
X132265789Y-69931196D03*
X150359311Y-72566119D03*
X131303062Y-67110573D03*
X132857641Y-66022207D03*
X141054277Y-73105571D03*
X130147986Y-74067660D03*
X154629156Y-79085176D03*
X138071713Y-76654941D03*
X150359311Y-73509263D03*
X154975810Y-70036294D03*
X127926394Y-72289383D03*
X136553553Y-68204003D03*
X159981325Y-77042671D03*
X136281327Y-71519470D03*
X129738066Y-67179855D03*
%TD*%
D15*
%TO.N,+3.3V*%
X136878312Y-78747216D02*
X139127989Y-78747216D01*
X136847396Y-78778132D02*
X136878312Y-78747216D01*
X158685233Y-77954526D02*
X158685233Y-76255427D01*
X158685233Y-76211179D02*
X158685233Y-76115526D01*
X158707357Y-76233303D02*
X158685233Y-76211179D01*
X158685233Y-76255427D02*
X158707357Y-76233303D01*
X134388461Y-81793588D02*
X132810089Y-81793588D01*
%TO.N,unconnected-(J1-Shield-Pad6)*%
X156399000Y-75045000D02*
X160049000Y-75045000D01*
X156399000Y-67595000D02*
X160049000Y-67595000D01*
X160199000Y-67445000D02*
X160199000Y-75195000D01*
X160049000Y-75045000D02*
X160199000Y-75195000D01*
X160049000Y-67595000D02*
X160199000Y-67445000D01*
%TD*%
%TA.AperFunction,Conductor*%
%TO.N,GND*%
G36*
X160048319Y-55881752D02*
G01*
X160051762Y-55882336D01*
X160098185Y-55890224D01*
X160103825Y-55891457D01*
X160256693Y-55932418D01*
X160349122Y-55959046D01*
X160411724Y-55977082D01*
X160416759Y-55978769D01*
X160566183Y-56036127D01*
X160714007Y-56097358D01*
X160718412Y-56099388D01*
X160784180Y-56132899D01*
X160861921Y-56172511D01*
X160937428Y-56214241D01*
X161001480Y-56249641D01*
X161005215Y-56251882D01*
X161079487Y-56300115D01*
X161140872Y-56339980D01*
X161228357Y-56402053D01*
X161270764Y-56432142D01*
X161273886Y-56434510D01*
X161398748Y-56535621D01*
X161401034Y-56537567D01*
X161518721Y-56642738D01*
X161521248Y-56645128D01*
X161634870Y-56758750D01*
X161637260Y-56761277D01*
X161742431Y-56878964D01*
X161744385Y-56881260D01*
X161845480Y-57006102D01*
X161847862Y-57009243D01*
X161940019Y-57139127D01*
X161993758Y-57221875D01*
X162028106Y-57274767D01*
X162030364Y-57278531D01*
X162107488Y-57418078D01*
X162180604Y-57561575D01*
X162182643Y-57565997D01*
X162243877Y-57713829D01*
X162301221Y-57863216D01*
X162302916Y-57868273D01*
X162318305Y-57921688D01*
X162323148Y-57954992D01*
X162459500Y-74453499D01*
X162459500Y-83818376D01*
X162459415Y-83821622D01*
X162452509Y-83953382D01*
X162442196Y-84137013D01*
X162441530Y-84143240D01*
X162417394Y-84295630D01*
X162389778Y-84458163D01*
X162388541Y-84463827D01*
X162347579Y-84616702D01*
X162302916Y-84771725D01*
X162301221Y-84776781D01*
X162243877Y-84926170D01*
X162182643Y-85074001D01*
X162180604Y-85078423D01*
X162107488Y-85221921D01*
X162030364Y-85361467D01*
X162028097Y-85365246D01*
X161940019Y-85500872D01*
X161847862Y-85630755D01*
X161845480Y-85633896D01*
X161744385Y-85758738D01*
X161742431Y-85761034D01*
X161637260Y-85878721D01*
X161634870Y-85881248D01*
X161521248Y-85994870D01*
X161518721Y-85997260D01*
X161401034Y-86102431D01*
X161398738Y-86104385D01*
X161273896Y-86205480D01*
X161270755Y-86207862D01*
X161140872Y-86300019D01*
X161005246Y-86388097D01*
X161001467Y-86390364D01*
X160861921Y-86467488D01*
X160718421Y-86540605D01*
X160713998Y-86542644D01*
X160566135Y-86603891D01*
X160527870Y-86618579D01*
X160484199Y-86626812D01*
X129269000Y-86819500D01*
X124461624Y-86819500D01*
X124458378Y-86819415D01*
X124326617Y-86812509D01*
X124142985Y-86802196D01*
X124136758Y-86801530D01*
X123984369Y-86777394D01*
X123821835Y-86749778D01*
X123816171Y-86748541D01*
X123663297Y-86707579D01*
X123508273Y-86662916D01*
X123503217Y-86661221D01*
X123353829Y-86603877D01*
X123205997Y-86542643D01*
X123201575Y-86540604D01*
X123058078Y-86467488D01*
X122918531Y-86390364D01*
X122914767Y-86388106D01*
X122861875Y-86353758D01*
X122779127Y-86300019D01*
X122649243Y-86207862D01*
X122646102Y-86205480D01*
X122521260Y-86104385D01*
X122518964Y-86102431D01*
X122401277Y-85997260D01*
X122398750Y-85994870D01*
X122285128Y-85881248D01*
X122282738Y-85878721D01*
X122177567Y-85761034D01*
X122175613Y-85758738D01*
X122136848Y-85710867D01*
X122074510Y-85633886D01*
X122072136Y-85630755D01*
X121979980Y-85500872D01*
X121947406Y-85450715D01*
X121891882Y-85365215D01*
X121889641Y-85361480D01*
X121824716Y-85244005D01*
X121812511Y-85221921D01*
X121772899Y-85144180D01*
X121739388Y-85078412D01*
X121737358Y-85074007D01*
X121676122Y-84926170D01*
X121618769Y-84776759D01*
X121617082Y-84771724D01*
X121572420Y-84616702D01*
X121567316Y-84597652D01*
X121531453Y-84463811D01*
X121530226Y-84458194D01*
X121502601Y-84295606D01*
X121478465Y-84143212D01*
X121477803Y-84137027D01*
X121467490Y-83953382D01*
X121460584Y-83821620D01*
X121460542Y-83820000D01*
X123104341Y-83820000D01*
X123124936Y-84055403D01*
X123124938Y-84055413D01*
X123186094Y-84283655D01*
X123186096Y-84283659D01*
X123186097Y-84283663D01*
X123229554Y-84376857D01*
X123285964Y-84497828D01*
X123285965Y-84497830D01*
X123421505Y-84691402D01*
X123588597Y-84858494D01*
X123782169Y-84994034D01*
X123782171Y-84994035D01*
X123996337Y-85093903D01*
X124224592Y-85155063D01*
X124401034Y-85170500D01*
X124518966Y-85170500D01*
X124695408Y-85155063D01*
X124923663Y-85093903D01*
X125137829Y-84994035D01*
X125331401Y-84858495D01*
X125381669Y-84808227D01*
X130796824Y-84808227D01*
X130796826Y-84808253D01*
X130799737Y-84833358D01*
X130799739Y-84833362D01*
X130845117Y-84936135D01*
X130845118Y-84936136D01*
X130924559Y-85015577D01*
X131027333Y-85060956D01*
X131052459Y-85063871D01*
X132842188Y-85063870D01*
X132842203Y-85063868D01*
X132842206Y-85063868D01*
X132867311Y-85060957D01*
X132867312Y-85060956D01*
X132867315Y-85060956D01*
X132970089Y-85015577D01*
X133049530Y-84936136D01*
X133094909Y-84833362D01*
X133097824Y-84808236D01*
X133097823Y-84069417D01*
X133117507Y-84002380D01*
X133170311Y-83956625D01*
X133239470Y-83946681D01*
X133303026Y-83975706D01*
X133340800Y-84034484D01*
X133345294Y-84057977D01*
X133348343Y-84090882D01*
X133351568Y-84125681D01*
X133399923Y-84295630D01*
X133409920Y-84330763D01*
X133409920Y-84330765D01*
X133504956Y-84521624D01*
X133633163Y-84691395D01*
X133633452Y-84691778D01*
X133791022Y-84835423D01*
X133972305Y-84947669D01*
X134171126Y-85024692D01*
X134380714Y-85063871D01*
X134380716Y-85063871D01*
X134593932Y-85063871D01*
X134593934Y-85063871D01*
X134803522Y-85024692D01*
X135002343Y-84947669D01*
X135183626Y-84835423D01*
X135341196Y-84691778D01*
X135469690Y-84521626D01*
X135498470Y-84463827D01*
X135564727Y-84330765D01*
X135564727Y-84330764D01*
X135564729Y-84330760D01*
X135623080Y-84125681D01*
X135633853Y-84009418D01*
X135659639Y-83944482D01*
X135701946Y-83914175D01*
X135810454Y-83914175D01*
X135846827Y-83935039D01*
X135879017Y-83997052D01*
X135880794Y-84009418D01*
X135891568Y-84125681D01*
X135939923Y-84295630D01*
X135949920Y-84330763D01*
X135949920Y-84330765D01*
X136044956Y-84521624D01*
X136173163Y-84691395D01*
X136173452Y-84691778D01*
X136331022Y-84835423D01*
X136512305Y-84947669D01*
X136711126Y-85024692D01*
X136920714Y-85063871D01*
X136920716Y-85063871D01*
X137133932Y-85063871D01*
X137133934Y-85063871D01*
X137343522Y-85024692D01*
X137542343Y-84947669D01*
X137723626Y-84835423D01*
X137881196Y-84691778D01*
X138009690Y-84521626D01*
X138076649Y-84387152D01*
X138124149Y-84335919D01*
X138191812Y-84318497D01*
X138258152Y-84340422D01*
X138300029Y-84390022D01*
X138393723Y-84590949D01*
X138529218Y-84784453D01*
X138696241Y-84951476D01*
X138889745Y-85086971D01*
X139103831Y-85186800D01*
X139103840Y-85186804D01*
X139317324Y-85244005D01*
X139317324Y-84525672D01*
X139337009Y-84458633D01*
X139389813Y-84412878D01*
X139458971Y-84402934D01*
X139531561Y-84413371D01*
X139531562Y-84413371D01*
X139603086Y-84413371D01*
X139603087Y-84413371D01*
X139675677Y-84402934D01*
X139744836Y-84412878D01*
X139797639Y-84458633D01*
X139817324Y-84525672D01*
X139817324Y-85244004D01*
X140030807Y-85186804D01*
X140030816Y-85186800D01*
X140244902Y-85086971D01*
X140438406Y-84951476D01*
X140605429Y-84784453D01*
X140740924Y-84590949D01*
X140840753Y-84376863D01*
X140840756Y-84376857D01*
X140897960Y-84163371D01*
X140180671Y-84163371D01*
X140113632Y-84143686D01*
X140067877Y-84090882D01*
X140057933Y-84021724D01*
X140061693Y-84004438D01*
X140067324Y-83985259D01*
X140067324Y-83841482D01*
X140061693Y-83822304D01*
X140061693Y-83820000D01*
X158104341Y-83820000D01*
X158124936Y-84055403D01*
X158124938Y-84055413D01*
X158186094Y-84283655D01*
X158186096Y-84283659D01*
X158186097Y-84283663D01*
X158229554Y-84376857D01*
X158285964Y-84497828D01*
X158285965Y-84497830D01*
X158421505Y-84691402D01*
X158588597Y-84858494D01*
X158782169Y-84994034D01*
X158782171Y-84994035D01*
X158996337Y-85093903D01*
X159224592Y-85155063D01*
X159401034Y-85170500D01*
X159518966Y-85170500D01*
X159695408Y-85155063D01*
X159923663Y-85093903D01*
X160137829Y-84994035D01*
X160331401Y-84858495D01*
X160498495Y-84691401D01*
X160634035Y-84497830D01*
X160733903Y-84283663D01*
X160795063Y-84055408D01*
X160815659Y-83820000D01*
X160795063Y-83584592D01*
X160733903Y-83356337D01*
X160634035Y-83142171D01*
X160634034Y-83142169D01*
X160498494Y-82948597D01*
X160331402Y-82781505D01*
X160137830Y-82645965D01*
X160137828Y-82645964D01*
X160002233Y-82582735D01*
X159923663Y-82546097D01*
X159923659Y-82546096D01*
X159923655Y-82546094D01*
X159695413Y-82484938D01*
X159695403Y-82484936D01*
X159518966Y-82469500D01*
X159401034Y-82469500D01*
X159224596Y-82484936D01*
X159224586Y-82484938D01*
X158996344Y-82546094D01*
X158996335Y-82546098D01*
X158782171Y-82645964D01*
X158782169Y-82645965D01*
X158588597Y-82781505D01*
X158421506Y-82948597D01*
X158421501Y-82948604D01*
X158285967Y-83142165D01*
X158285965Y-83142169D01*
X158186098Y-83356335D01*
X158186094Y-83356344D01*
X158124938Y-83584586D01*
X158124936Y-83584596D01*
X158104341Y-83819999D01*
X158104341Y-83820000D01*
X140061693Y-83820000D01*
X140061694Y-83752435D01*
X140099469Y-83693657D01*
X140163025Y-83664633D01*
X140180671Y-83663371D01*
X140897960Y-83663371D01*
X140897959Y-83663370D01*
X140840756Y-83449884D01*
X140840753Y-83449878D01*
X140740924Y-83235793D01*
X140740923Y-83235791D01*
X140605437Y-83042297D01*
X140605432Y-83042291D01*
X140438406Y-82875265D01*
X140244902Y-82739770D01*
X140030816Y-82639941D01*
X140030810Y-82639938D01*
X139817324Y-82582735D01*
X139817324Y-83301069D01*
X139797639Y-83368108D01*
X139744835Y-83413863D01*
X139675679Y-83423807D01*
X139603090Y-83413371D01*
X139603087Y-83413371D01*
X139531561Y-83413371D01*
X139531557Y-83413371D01*
X139458969Y-83423807D01*
X139389811Y-83413863D01*
X139337008Y-83368107D01*
X139317324Y-83301069D01*
X139317324Y-82582735D01*
X139317323Y-82582735D01*
X139103837Y-82639938D01*
X139103831Y-82639941D01*
X138889746Y-82739770D01*
X138889744Y-82739771D01*
X138696250Y-82875257D01*
X138696244Y-82875262D01*
X138529215Y-83042291D01*
X138529210Y-83042297D01*
X138393724Y-83235791D01*
X138393723Y-83235793D01*
X138300029Y-83436719D01*
X138253856Y-83489158D01*
X138186663Y-83508310D01*
X138119781Y-83488094D01*
X138076648Y-83439587D01*
X138009690Y-83305116D01*
X137881196Y-83134964D01*
X137723626Y-82991319D01*
X137542343Y-82879073D01*
X137542341Y-82879072D01*
X137442932Y-82840561D01*
X137343522Y-82802050D01*
X137133934Y-82762871D01*
X136920714Y-82762871D01*
X136711126Y-82802050D01*
X136711123Y-82802050D01*
X136711123Y-82802051D01*
X136512306Y-82879072D01*
X136512304Y-82879073D01*
X136331023Y-82991318D01*
X136173451Y-83134964D01*
X136044956Y-83305117D01*
X135949920Y-83495976D01*
X135949920Y-83495978D01*
X135891568Y-83701060D01*
X135880795Y-83817322D01*
X135855009Y-83882259D01*
X135810454Y-83914175D01*
X135701946Y-83914175D01*
X135704193Y-83912565D01*
X135667821Y-83891702D01*
X135635631Y-83829689D01*
X135633853Y-83817322D01*
X135630499Y-83781130D01*
X135623080Y-83701061D01*
X135564729Y-83495982D01*
X135564727Y-83495977D01*
X135564727Y-83495976D01*
X135469691Y-83305117D01*
X135341196Y-83134964D01*
X135183626Y-82991319D01*
X135002343Y-82879073D01*
X135002341Y-82879072D01*
X134902932Y-82840561D01*
X134803522Y-82802050D01*
X134593934Y-82762871D01*
X134380714Y-82762871D01*
X134171126Y-82802050D01*
X134171123Y-82802050D01*
X134171123Y-82802051D01*
X133972306Y-82879072D01*
X133972304Y-82879073D01*
X133791023Y-82991318D01*
X133633451Y-83134964D01*
X133504956Y-83305117D01*
X133409920Y-83495976D01*
X133409920Y-83495978D01*
X133351568Y-83701060D01*
X133345294Y-83768765D01*
X133319507Y-83833702D01*
X133262707Y-83874389D01*
X133192926Y-83877909D01*
X133132319Y-83843143D01*
X133100130Y-83781130D01*
X133097823Y-83757323D01*
X133097823Y-83413371D01*
X133097823Y-83018507D01*
X133097821Y-83018488D01*
X133094910Y-82993383D01*
X133094909Y-82993381D01*
X133094909Y-82993380D01*
X133049530Y-82890606D01*
X132970089Y-82811165D01*
X132949448Y-82802051D01*
X132867316Y-82765786D01*
X132842189Y-82762871D01*
X131052467Y-82762871D01*
X131052441Y-82762873D01*
X131027336Y-82765784D01*
X131027332Y-82765786D01*
X130924559Y-82811164D01*
X130845118Y-82890605D01*
X130799739Y-82993377D01*
X130799739Y-82993379D01*
X130796824Y-83018502D01*
X130796824Y-84808227D01*
X125381669Y-84808227D01*
X125498495Y-84691401D01*
X125634035Y-84497830D01*
X125733903Y-84283663D01*
X125795063Y-84055408D01*
X125815659Y-83820000D01*
X125795063Y-83584592D01*
X125733903Y-83356337D01*
X125634035Y-83142171D01*
X125634034Y-83142169D01*
X125498494Y-82948597D01*
X125331402Y-82781505D01*
X125137830Y-82645965D01*
X125137828Y-82645964D01*
X125002233Y-82582735D01*
X124923663Y-82546097D01*
X124923659Y-82546096D01*
X124923655Y-82546094D01*
X124695413Y-82484938D01*
X124695403Y-82484936D01*
X124518966Y-82469500D01*
X124401034Y-82469500D01*
X124224596Y-82484936D01*
X124224586Y-82484938D01*
X123996344Y-82546094D01*
X123996335Y-82546098D01*
X123782171Y-82645964D01*
X123782169Y-82645965D01*
X123588597Y-82781505D01*
X123421506Y-82948597D01*
X123421501Y-82948604D01*
X123285967Y-83142165D01*
X123285965Y-83142169D01*
X123186098Y-83356335D01*
X123186094Y-83356344D01*
X123124938Y-83584586D01*
X123124936Y-83584596D01*
X123104341Y-83819999D01*
X123104341Y-83820000D01*
X121460542Y-83820000D01*
X121460500Y-83818377D01*
X121460500Y-81793587D01*
X132104444Y-81793587D01*
X132124948Y-81962457D01*
X132124949Y-81962462D01*
X132185271Y-82121519D01*
X132247564Y-82211765D01*
X132281906Y-82261517D01*
X132375110Y-82344088D01*
X132409239Y-82374324D01*
X132559862Y-82453377D01*
X132559864Y-82453378D01*
X132725033Y-82494088D01*
X132895145Y-82494088D01*
X133060314Y-82453378D01*
X133149636Y-82406497D01*
X133210934Y-82374326D01*
X133210935Y-82374324D01*
X133210941Y-82374322D01*
X133210945Y-82374318D01*
X133217109Y-82370064D01*
X133218049Y-82371427D01*
X133273100Y-82345551D01*
X133292095Y-82344088D01*
X133906455Y-82344088D01*
X133973494Y-82363773D01*
X133985535Y-82372890D01*
X133987615Y-82374326D01*
X134138234Y-82453377D01*
X134138236Y-82453378D01*
X134303405Y-82494088D01*
X134473517Y-82494088D01*
X134638686Y-82453378D01*
X134718153Y-82411669D01*
X134789310Y-82374324D01*
X134789311Y-82374322D01*
X134789313Y-82374322D01*
X134916644Y-82261517D01*
X135013279Y-82121518D01*
X135073601Y-81962460D01*
X135094106Y-81793588D01*
X135073601Y-81624716D01*
X135013279Y-81465658D01*
X134916644Y-81325659D01*
X134821777Y-81241614D01*
X134789310Y-81212851D01*
X134638687Y-81133798D01*
X134473517Y-81093088D01*
X134303405Y-81093088D01*
X134138234Y-81133798D01*
X133987615Y-81212849D01*
X133981441Y-81217112D01*
X133980500Y-81215748D01*
X133925450Y-81241625D01*
X133906455Y-81243088D01*
X133292095Y-81243088D01*
X133225056Y-81223403D01*
X133213014Y-81214285D01*
X133210934Y-81212849D01*
X133060315Y-81133798D01*
X132895145Y-81093088D01*
X132725033Y-81093088D01*
X132559862Y-81133798D01*
X132409239Y-81212851D01*
X132281905Y-81325660D01*
X132185271Y-81465656D01*
X132124949Y-81624713D01*
X132124948Y-81624718D01*
X132104444Y-81793587D01*
X121460500Y-81793587D01*
X121460500Y-78778132D01*
X136141751Y-78778132D01*
X136162255Y-78947001D01*
X136162256Y-78947006D01*
X136222578Y-79106063D01*
X136284871Y-79196309D01*
X136319213Y-79246061D01*
X136424901Y-79339692D01*
X136446546Y-79358868D01*
X136597169Y-79437921D01*
X136597171Y-79437922D01*
X136762340Y-79478632D01*
X136932452Y-79478632D01*
X137097621Y-79437922D01*
X137186943Y-79391041D01*
X137248241Y-79358870D01*
X137248242Y-79358868D01*
X137248248Y-79358866D01*
X137272504Y-79337376D01*
X137282072Y-79328901D01*
X137345305Y-79299179D01*
X137364299Y-79297716D01*
X138645983Y-79297716D01*
X138713022Y-79317401D01*
X138725063Y-79326518D01*
X138727143Y-79327954D01*
X138877762Y-79407005D01*
X138877764Y-79407006D01*
X139042933Y-79447716D01*
X139213045Y-79447716D01*
X139378214Y-79407006D01*
X139457681Y-79365297D01*
X139528838Y-79327952D01*
X139528839Y-79327950D01*
X139528841Y-79327950D01*
X139656172Y-79215145D01*
X139752807Y-79075146D01*
X139813129Y-78916088D01*
X139833634Y-78747216D01*
X139813129Y-78578344D01*
X139752807Y-78419286D01*
X139656172Y-78279287D01*
X139546935Y-78182512D01*
X139528838Y-78166479D01*
X139378215Y-78087426D01*
X139213045Y-78046716D01*
X139042933Y-78046716D01*
X138877762Y-78087426D01*
X138727143Y-78166477D01*
X138720969Y-78170740D01*
X138720028Y-78169376D01*
X138664978Y-78195253D01*
X138645983Y-78196716D01*
X137277512Y-78196716D01*
X137219886Y-78182512D01*
X137097620Y-78118341D01*
X137097621Y-78118341D01*
X136932452Y-78077632D01*
X136762340Y-78077632D01*
X136597169Y-78118342D01*
X136446546Y-78197395D01*
X136319212Y-78310204D01*
X136222578Y-78450200D01*
X136162256Y-78609257D01*
X136162255Y-78609262D01*
X136141751Y-78778132D01*
X121460500Y-78778132D01*
X121460500Y-75044999D01*
X155093538Y-75044999D01*
X155113337Y-75246031D01*
X155171978Y-75439345D01*
X155267198Y-75617488D01*
X155267203Y-75617495D01*
X155395352Y-75773647D01*
X155504016Y-75862824D01*
X155551506Y-75901798D01*
X155551509Y-75901799D01*
X155551511Y-75901801D01*
X155729654Y-75997021D01*
X155729656Y-75997021D01*
X155729659Y-75997023D01*
X155922967Y-76055662D01*
X156073620Y-76070500D01*
X156073623Y-76070500D01*
X156724377Y-76070500D01*
X156724380Y-76070500D01*
X156875033Y-76055662D01*
X157068341Y-75997023D01*
X157246494Y-75901798D01*
X157402647Y-75773647D01*
X157489358Y-75667989D01*
X157511643Y-75640835D01*
X157569388Y-75601501D01*
X157607496Y-75595500D01*
X157956747Y-75595500D01*
X158023786Y-75615185D01*
X158069541Y-75667989D01*
X158079485Y-75737147D01*
X158062589Y-75780263D01*
X158063902Y-75780952D01*
X158060415Y-75787594D01*
X158000093Y-75946651D01*
X158000092Y-75946656D01*
X157979588Y-76115526D01*
X158000092Y-76284395D01*
X158000093Y-76284400D01*
X158060415Y-76443457D01*
X158112783Y-76519324D01*
X158134666Y-76585678D01*
X158134733Y-76589764D01*
X158134733Y-77480287D01*
X158115048Y-77547326D01*
X158112783Y-77550727D01*
X158060416Y-77626594D01*
X158060415Y-77626594D01*
X158000093Y-77785651D01*
X158000092Y-77785656D01*
X157979588Y-77954526D01*
X158000092Y-78123395D01*
X158000093Y-78123400D01*
X158060415Y-78282457D01*
X158079568Y-78310204D01*
X158157050Y-78422455D01*
X158262738Y-78516086D01*
X158284383Y-78535262D01*
X158435006Y-78614315D01*
X158435008Y-78614316D01*
X158600177Y-78655026D01*
X158770289Y-78655026D01*
X158935458Y-78614316D01*
X159014925Y-78572607D01*
X159086082Y-78535262D01*
X159086083Y-78535260D01*
X159086085Y-78535260D01*
X159213416Y-78422455D01*
X159310051Y-78282456D01*
X159370373Y-78123398D01*
X159390878Y-77954526D01*
X159370373Y-77785654D01*
X159310051Y-77626596D01*
X159310050Y-77626594D01*
X159257683Y-77550727D01*
X159235800Y-77484372D01*
X159235733Y-77480287D01*
X159235733Y-76589764D01*
X159255418Y-76522725D01*
X159257683Y-76519324D01*
X159271903Y-76498722D01*
X159310051Y-76443456D01*
X159370373Y-76284398D01*
X159390878Y-76115526D01*
X159390877Y-76115523D01*
X159390964Y-76114813D01*
X159418586Y-76050635D01*
X159476520Y-76011578D01*
X159546372Y-76010043D01*
X159566115Y-76017215D01*
X159592803Y-76029562D01*
X159778784Y-76070500D01*
X159778785Y-76070500D01*
X160571459Y-76070500D01*
X160571465Y-76070500D01*
X160713316Y-76055073D01*
X160893780Y-75994267D01*
X161056954Y-75896089D01*
X161195207Y-75765129D01*
X161302075Y-75607510D01*
X161302077Y-75607506D01*
X161372561Y-75430606D01*
X161372562Y-75430602D01*
X161403370Y-75242678D01*
X161393061Y-75052525D01*
X161342114Y-74869033D01*
X161252914Y-74700784D01*
X161252911Y-74700781D01*
X161252911Y-74700779D01*
X161129631Y-74555643D01*
X161048424Y-74493911D01*
X160978029Y-74440398D01*
X160821433Y-74367949D01*
X160768856Y-74321935D01*
X160749500Y-74255410D01*
X160749500Y-68381949D01*
X160769185Y-68314910D01*
X160821989Y-68269155D01*
X160833894Y-68264444D01*
X160893780Y-68244267D01*
X161056954Y-68146089D01*
X161195207Y-68015129D01*
X161302075Y-67857510D01*
X161302077Y-67857506D01*
X161372561Y-67680606D01*
X161372562Y-67680602D01*
X161403370Y-67492678D01*
X161393061Y-67302525D01*
X161342114Y-67119033D01*
X161252914Y-66950784D01*
X161252911Y-66950781D01*
X161252911Y-66950779D01*
X161129631Y-66805643D01*
X160978026Y-66690396D01*
X160978025Y-66690395D01*
X160805193Y-66610436D01*
X160619216Y-66569500D01*
X159826535Y-66569500D01*
X159826533Y-66569500D01*
X159684683Y-66584927D01*
X159504217Y-66645734D01*
X159341048Y-66743909D01*
X159202791Y-66874872D01*
X159124675Y-66990087D01*
X159070760Y-67034528D01*
X159022041Y-67044500D01*
X157607496Y-67044500D01*
X157540457Y-67024815D01*
X157511643Y-66999165D01*
X157402647Y-66866352D01*
X157246495Y-66738203D01*
X157246488Y-66738198D01*
X157068345Y-66642978D01*
X156875031Y-66584337D01*
X156764900Y-66573490D01*
X156724380Y-66569500D01*
X156073620Y-66569500D01*
X156036433Y-66573162D01*
X155922968Y-66584337D01*
X155729654Y-66642978D01*
X155551511Y-66738198D01*
X155551504Y-66738203D01*
X155395352Y-66866352D01*
X155267203Y-67022504D01*
X155267198Y-67022511D01*
X155171978Y-67200654D01*
X155113337Y-67393968D01*
X155093538Y-67595000D01*
X155113337Y-67796031D01*
X155171978Y-67989345D01*
X155267198Y-68167488D01*
X155267203Y-68167495D01*
X155395352Y-68323647D01*
X155485914Y-68397968D01*
X155551506Y-68451798D01*
X155551509Y-68451799D01*
X155551511Y-68451801D01*
X155729654Y-68547021D01*
X155729656Y-68547021D01*
X155729659Y-68547023D01*
X155922967Y-68605662D01*
X156073620Y-68620500D01*
X156073623Y-68620500D01*
X156624500Y-68620500D01*
X156691539Y-68640185D01*
X156737294Y-68692989D01*
X156748500Y-68744500D01*
X156748500Y-68773872D01*
X156748048Y-68781352D01*
X156743355Y-68819999D01*
X156748048Y-68858646D01*
X156748500Y-68866126D01*
X156748500Y-68905058D01*
X156757816Y-68942855D01*
X156759166Y-68950223D01*
X156763859Y-68988869D01*
X156763861Y-68988876D01*
X156777665Y-69025276D01*
X156779894Y-69032429D01*
X156789209Y-69070221D01*
X156789210Y-69070226D01*
X156807299Y-69104693D01*
X156810374Y-69111524D01*
X156824182Y-69147931D01*
X156824183Y-69147933D01*
X156846300Y-69179974D01*
X156850177Y-69186387D01*
X156868263Y-69220848D01*
X156868265Y-69220851D01*
X156894075Y-69249986D01*
X156898695Y-69255882D01*
X156898701Y-69255890D01*
X156920816Y-69287928D01*
X156920821Y-69287933D01*
X156949955Y-69313743D01*
X156955250Y-69319037D01*
X156981069Y-69348181D01*
X156981073Y-69348185D01*
X157013111Y-69370299D01*
X157019005Y-69374916D01*
X157031685Y-69386150D01*
X157048145Y-69400732D01*
X157048151Y-69400736D01*
X157082614Y-69418823D01*
X157089018Y-69422694D01*
X157121070Y-69444818D01*
X157157484Y-69458627D01*
X157164283Y-69461687D01*
X157198775Y-69479790D01*
X157198777Y-69479790D01*
X157198778Y-69479791D01*
X157205914Y-69481549D01*
X157236590Y-69489110D01*
X157243712Y-69491329D01*
X157280128Y-69505140D01*
X157299572Y-69507500D01*
X157318773Y-69509832D01*
X157326140Y-69511181D01*
X157350369Y-69517153D01*
X157363943Y-69520500D01*
X157363944Y-69520500D01*
X157534058Y-69520500D01*
X157543590Y-69518149D01*
X157571875Y-69511177D01*
X157579206Y-69509834D01*
X157617872Y-69505140D01*
X157654277Y-69491333D01*
X157661427Y-69489106D01*
X157672744Y-69486316D01*
X157699225Y-69479790D01*
X157733707Y-69461691D01*
X157740507Y-69458630D01*
X157776930Y-69444818D01*
X157808981Y-69422693D01*
X157815379Y-69418825D01*
X157849852Y-69400734D01*
X157879002Y-69374908D01*
X157884871Y-69370310D01*
X157916929Y-69348183D01*
X157942748Y-69319037D01*
X157948037Y-69313748D01*
X157977183Y-69287929D01*
X157999310Y-69255871D01*
X158003908Y-69250002D01*
X158029734Y-69220852D01*
X158047825Y-69186379D01*
X158051693Y-69179981D01*
X158073818Y-69147930D01*
X158087630Y-69111507D01*
X158090691Y-69104707D01*
X158108790Y-69070225D01*
X158115316Y-69043744D01*
X158118106Y-69032427D01*
X158120333Y-69025277D01*
X158134140Y-68988872D01*
X158138834Y-68950206D01*
X158140177Y-68942875D01*
X158149500Y-68905056D01*
X158149500Y-68866126D01*
X158149952Y-68858646D01*
X158154645Y-68820000D01*
X158149951Y-68781348D01*
X158149500Y-68773872D01*
X158149500Y-68734943D01*
X158140183Y-68697147D01*
X158138832Y-68689773D01*
X158134140Y-68651130D01*
X158134140Y-68651128D01*
X158120329Y-68614712D01*
X158118110Y-68607590D01*
X158108790Y-68569775D01*
X158090687Y-68535283D01*
X158087627Y-68528484D01*
X158073818Y-68492070D01*
X158051694Y-68460018D01*
X158047823Y-68453614D01*
X158029736Y-68419151D01*
X158029732Y-68419145D01*
X158015150Y-68402685D01*
X158003916Y-68390005D01*
X157999299Y-68384111D01*
X157977184Y-68352072D01*
X157976883Y-68351732D01*
X157976740Y-68351429D01*
X157972922Y-68345897D01*
X157973841Y-68345262D01*
X157947158Y-68288501D01*
X157956338Y-68219237D01*
X158001507Y-68165931D01*
X158068325Y-68145508D01*
X158069694Y-68145500D01*
X159307020Y-68145500D01*
X159374059Y-68165185D01*
X159382060Y-68170783D01*
X159419974Y-68199604D01*
X159462833Y-68219432D01*
X159576566Y-68272050D01*
X159629144Y-68318063D01*
X159648500Y-68384589D01*
X159648500Y-74258049D01*
X159628815Y-74325088D01*
X159576011Y-74370843D01*
X159564096Y-74375557D01*
X159504222Y-74395731D01*
X159462945Y-74420567D01*
X159369565Y-74476751D01*
X159305639Y-74494500D01*
X158069694Y-74494500D01*
X158002655Y-74474815D01*
X157956900Y-74422011D01*
X157946956Y-74352853D01*
X157973577Y-74294559D01*
X157972920Y-74294105D01*
X157975477Y-74290399D01*
X157975981Y-74289297D01*
X157976876Y-74288276D01*
X157977180Y-74287932D01*
X157977180Y-74287931D01*
X157977183Y-74287929D01*
X157999310Y-74255871D01*
X158003908Y-74250002D01*
X158029734Y-74220852D01*
X158047825Y-74186379D01*
X158051693Y-74179981D01*
X158073818Y-74147930D01*
X158087630Y-74111507D01*
X158090691Y-74104707D01*
X158108790Y-74070225D01*
X158118106Y-74032427D01*
X158120335Y-74025271D01*
X158134140Y-73988872D01*
X158138834Y-73950206D01*
X158140177Y-73942875D01*
X158149500Y-73905056D01*
X158149500Y-73866126D01*
X158149952Y-73858646D01*
X158154645Y-73820000D01*
X158149951Y-73781348D01*
X158149500Y-73773872D01*
X158149500Y-73734943D01*
X158140183Y-73697147D01*
X158138832Y-73689773D01*
X158134140Y-73651130D01*
X158134140Y-73651128D01*
X158120329Y-73614712D01*
X158118110Y-73607590D01*
X158108790Y-73569775D01*
X158090687Y-73535283D01*
X158087627Y-73528484D01*
X158073818Y-73492070D01*
X158051694Y-73460018D01*
X158047823Y-73453614D01*
X158029736Y-73419151D01*
X158029732Y-73419145D01*
X158015150Y-73402685D01*
X158003916Y-73390005D01*
X157999299Y-73384111D01*
X157977185Y-73352073D01*
X157977183Y-73352071D01*
X157948037Y-73326250D01*
X157942743Y-73320955D01*
X157916933Y-73291821D01*
X157916930Y-73291819D01*
X157916929Y-73291817D01*
X157916925Y-73291814D01*
X157884882Y-73269695D01*
X157878986Y-73265075D01*
X157849851Y-73239265D01*
X157849848Y-73239263D01*
X157815387Y-73221177D01*
X157808974Y-73217300D01*
X157776933Y-73195183D01*
X157776931Y-73195182D01*
X157740524Y-73181374D01*
X157733693Y-73178299D01*
X157699226Y-73160210D01*
X157699221Y-73160209D01*
X157697601Y-73159809D01*
X157661424Y-73150892D01*
X157654276Y-73148665D01*
X157617876Y-73134861D01*
X157617869Y-73134859D01*
X157579223Y-73130166D01*
X157571855Y-73128816D01*
X157534058Y-73119500D01*
X157534056Y-73119500D01*
X157363944Y-73119500D01*
X157353363Y-73122107D01*
X157326143Y-73128816D01*
X157318776Y-73130166D01*
X157280126Y-73134860D01*
X157243725Y-73148664D01*
X157236576Y-73150891D01*
X157198775Y-73160210D01*
X157198770Y-73160212D01*
X157164296Y-73178303D01*
X157157467Y-73181377D01*
X157121071Y-73195180D01*
X157121069Y-73195181D01*
X157089027Y-73217299D01*
X157082617Y-73221174D01*
X157048149Y-73239265D01*
X157019005Y-73265082D01*
X157013110Y-73269700D01*
X156981072Y-73291815D01*
X156981071Y-73291816D01*
X156955253Y-73320957D01*
X156949957Y-73326253D01*
X156920816Y-73352071D01*
X156920815Y-73352072D01*
X156898700Y-73384110D01*
X156894082Y-73390005D01*
X156868265Y-73419149D01*
X156850174Y-73453617D01*
X156846299Y-73460027D01*
X156824181Y-73492069D01*
X156824180Y-73492071D01*
X156810377Y-73528467D01*
X156807303Y-73535296D01*
X156789212Y-73569770D01*
X156789210Y-73569775D01*
X156779891Y-73607576D01*
X156777664Y-73614725D01*
X156763860Y-73651126D01*
X156759166Y-73689776D01*
X156757816Y-73697143D01*
X156748500Y-73734945D01*
X156748500Y-73773872D01*
X156748048Y-73781352D01*
X156743355Y-73819999D01*
X156748048Y-73858646D01*
X156748500Y-73866126D01*
X156748500Y-73895500D01*
X156728815Y-73962539D01*
X156676011Y-74008294D01*
X156624500Y-74019500D01*
X156073620Y-74019500D01*
X156036433Y-74023162D01*
X155922968Y-74034337D01*
X155729654Y-74092978D01*
X155551511Y-74188198D01*
X155551504Y-74188203D01*
X155395352Y-74316352D01*
X155267203Y-74472504D01*
X155267198Y-74472511D01*
X155171978Y-74650654D01*
X155113337Y-74843968D01*
X155093538Y-75044999D01*
X121460500Y-75044999D01*
X121460500Y-67797883D01*
X122888500Y-67797883D01*
X122929210Y-67963054D01*
X123008263Y-68113677D01*
X123008266Y-68113680D01*
X123121071Y-68241011D01*
X123196217Y-68292881D01*
X123261068Y-68337645D01*
X123261069Y-68337645D01*
X123261070Y-68337646D01*
X123420128Y-68397968D01*
X123496028Y-68407184D01*
X123546626Y-68413328D01*
X123546628Y-68413328D01*
X123631374Y-68413328D01*
X123673538Y-68408208D01*
X123757872Y-68397968D01*
X123916930Y-68337646D01*
X124056929Y-68241011D01*
X124169734Y-68113680D01*
X124248790Y-67963053D01*
X124289500Y-67797884D01*
X124289500Y-67627772D01*
X124248790Y-67462603D01*
X124248789Y-67462601D01*
X124169736Y-67311978D01*
X124150560Y-67290333D01*
X124056929Y-67184645D01*
X124007177Y-67150303D01*
X123916931Y-67088010D01*
X123757874Y-67027688D01*
X123757868Y-67027687D01*
X123631374Y-67012328D01*
X123631372Y-67012328D01*
X123546628Y-67012328D01*
X123546626Y-67012328D01*
X123420131Y-67027687D01*
X123420125Y-67027688D01*
X123261068Y-67088010D01*
X123121072Y-67184644D01*
X123008263Y-67311978D01*
X122929210Y-67462601D01*
X122888500Y-67627772D01*
X122888500Y-67797883D01*
X121460500Y-67797883D01*
X121460500Y-64797883D01*
X122888500Y-64797883D01*
X122929210Y-64963054D01*
X123008263Y-65113677D01*
X123008266Y-65113680D01*
X123121071Y-65241011D01*
X123211318Y-65303304D01*
X123261068Y-65337645D01*
X123261069Y-65337645D01*
X123261070Y-65337646D01*
X123420128Y-65397968D01*
X123496028Y-65407184D01*
X123546626Y-65413328D01*
X123546628Y-65413328D01*
X123631374Y-65413328D01*
X123673538Y-65408208D01*
X123757872Y-65397968D01*
X123916930Y-65337646D01*
X124056929Y-65241011D01*
X124169734Y-65113680D01*
X124248790Y-64963053D01*
X124289500Y-64797884D01*
X124289500Y-64627772D01*
X124248790Y-64462603D01*
X124248789Y-64462601D01*
X124169736Y-64311978D01*
X124150560Y-64290333D01*
X124056929Y-64184645D01*
X124007177Y-64150303D01*
X123916931Y-64088010D01*
X123757874Y-64027688D01*
X123757868Y-64027687D01*
X123631374Y-64012328D01*
X123631372Y-64012328D01*
X123546628Y-64012328D01*
X123546626Y-64012328D01*
X123420131Y-64027687D01*
X123420125Y-64027688D01*
X123261068Y-64088010D01*
X123121072Y-64184644D01*
X123008263Y-64311978D01*
X122929210Y-64462601D01*
X122888500Y-64627772D01*
X122888500Y-64797883D01*
X121460500Y-64797883D01*
X121460500Y-58821622D01*
X121460542Y-58820000D01*
X123104341Y-58820000D01*
X123124936Y-59055403D01*
X123124938Y-59055413D01*
X123186094Y-59283655D01*
X123186096Y-59283659D01*
X123186097Y-59283663D01*
X123236030Y-59390746D01*
X123285964Y-59497828D01*
X123285965Y-59497830D01*
X123421505Y-59691402D01*
X123588597Y-59858494D01*
X123782169Y-59994034D01*
X123782171Y-59994035D01*
X123996337Y-60093903D01*
X124224592Y-60155063D01*
X124401034Y-60170500D01*
X124518966Y-60170500D01*
X124695408Y-60155063D01*
X124923663Y-60093903D01*
X125137829Y-59994035D01*
X125331401Y-59858495D01*
X125498495Y-59691401D01*
X125634035Y-59497830D01*
X125733903Y-59283663D01*
X125795063Y-59055408D01*
X125797010Y-59033153D01*
X130441377Y-59033153D01*
X130498580Y-59246639D01*
X130498583Y-59246645D01*
X130598412Y-59460731D01*
X130733907Y-59654235D01*
X130900930Y-59821258D01*
X131094434Y-59956753D01*
X131308520Y-60056582D01*
X131308529Y-60056586D01*
X131522013Y-60113787D01*
X131522013Y-59395454D01*
X131541698Y-59328415D01*
X131594502Y-59282660D01*
X131663660Y-59272716D01*
X131736250Y-59283153D01*
X131736251Y-59283153D01*
X131807775Y-59283153D01*
X131807776Y-59283153D01*
X131880366Y-59272716D01*
X131949525Y-59282660D01*
X132002328Y-59328415D01*
X132022013Y-59395454D01*
X132022013Y-60113786D01*
X132235496Y-60056586D01*
X132235505Y-60056582D01*
X132449591Y-59956753D01*
X132643095Y-59821258D01*
X132810118Y-59654235D01*
X132945613Y-59460731D01*
X133039307Y-59259804D01*
X133085479Y-59207365D01*
X133152673Y-59188213D01*
X133219554Y-59208429D01*
X133262689Y-59256938D01*
X133329645Y-59391406D01*
X133410012Y-59497828D01*
X133458141Y-59561560D01*
X133615711Y-59705205D01*
X133796994Y-59817451D01*
X133995815Y-59894474D01*
X134205403Y-59933653D01*
X134205405Y-59933653D01*
X134418621Y-59933653D01*
X134418623Y-59933653D01*
X134628211Y-59894474D01*
X134827032Y-59817451D01*
X135008315Y-59705205D01*
X135165885Y-59561560D01*
X135294379Y-59391408D01*
X135309198Y-59361647D01*
X135389416Y-59200547D01*
X135389416Y-59200546D01*
X135389418Y-59200542D01*
X135447769Y-58995463D01*
X135458542Y-58879200D01*
X135484328Y-58814264D01*
X135526635Y-58783957D01*
X135635143Y-58783957D01*
X135671516Y-58804821D01*
X135703706Y-58866834D01*
X135705484Y-58879201D01*
X135716257Y-58995463D01*
X135774609Y-59200545D01*
X135774609Y-59200547D01*
X135869645Y-59391406D01*
X135950012Y-59497828D01*
X135998141Y-59561560D01*
X136155711Y-59705205D01*
X136336994Y-59817451D01*
X136535815Y-59894474D01*
X136745403Y-59933653D01*
X136745405Y-59933653D01*
X136958621Y-59933653D01*
X136958623Y-59933653D01*
X137168211Y-59894474D01*
X137367032Y-59817451D01*
X137548315Y-59705205D01*
X137705885Y-59561560D01*
X137834379Y-59391408D01*
X137849198Y-59361647D01*
X137929416Y-59200547D01*
X137929416Y-59200546D01*
X137929418Y-59200542D01*
X137987769Y-58995463D01*
X137994042Y-58927758D01*
X138019827Y-58862822D01*
X138076627Y-58822134D01*
X138146408Y-58818614D01*
X138207015Y-58853378D01*
X138239206Y-58915391D01*
X138241513Y-58939200D01*
X138241513Y-59678009D01*
X138241515Y-59678035D01*
X138244426Y-59703140D01*
X138244428Y-59703144D01*
X138289806Y-59805917D01*
X138289807Y-59805918D01*
X138369248Y-59885359D01*
X138472022Y-59930738D01*
X138497148Y-59933653D01*
X140286877Y-59933652D01*
X140286892Y-59933650D01*
X140286895Y-59933650D01*
X140312000Y-59930739D01*
X140312001Y-59930738D01*
X140312004Y-59930738D01*
X140414778Y-59885359D01*
X140494219Y-59805918D01*
X140539598Y-59703144D01*
X140542513Y-59678018D01*
X140542513Y-59003394D01*
X143859654Y-59003394D01*
X143916857Y-59216880D01*
X143916860Y-59216886D01*
X144016689Y-59430972D01*
X144152184Y-59624476D01*
X144319207Y-59791499D01*
X144512711Y-59926994D01*
X144726797Y-60026823D01*
X144726806Y-60026827D01*
X144940290Y-60084028D01*
X144940290Y-59365695D01*
X144959975Y-59298656D01*
X145012779Y-59252901D01*
X145081937Y-59242957D01*
X145154527Y-59253394D01*
X145154528Y-59253394D01*
X145226052Y-59253394D01*
X145226053Y-59253394D01*
X145298643Y-59242957D01*
X145367802Y-59252901D01*
X145420605Y-59298656D01*
X145440290Y-59365695D01*
X145440290Y-60084027D01*
X145653773Y-60026827D01*
X145653782Y-60026823D01*
X145867868Y-59926994D01*
X146061372Y-59791499D01*
X146228395Y-59624476D01*
X146363890Y-59430972D01*
X146457584Y-59230045D01*
X146503756Y-59177606D01*
X146570950Y-59158454D01*
X146637831Y-59178670D01*
X146680966Y-59227179D01*
X146747922Y-59361647D01*
X146850763Y-59497829D01*
X146876418Y-59531801D01*
X147033988Y-59675446D01*
X147215271Y-59787692D01*
X147414092Y-59864715D01*
X147623680Y-59903894D01*
X147623682Y-59903894D01*
X147836898Y-59903894D01*
X147836900Y-59903894D01*
X148046488Y-59864715D01*
X148245309Y-59787692D01*
X148426592Y-59675446D01*
X148584162Y-59531801D01*
X148712656Y-59361649D01*
X148729204Y-59328415D01*
X148807693Y-59170788D01*
X148807693Y-59170787D01*
X148807695Y-59170783D01*
X148866046Y-58965704D01*
X148876819Y-58849441D01*
X148902605Y-58784505D01*
X148944912Y-58754198D01*
X149053420Y-58754198D01*
X149089793Y-58775062D01*
X149121983Y-58837075D01*
X149123760Y-58849441D01*
X149127114Y-58885632D01*
X149134534Y-58965704D01*
X149192886Y-59170786D01*
X149192886Y-59170788D01*
X149287922Y-59361647D01*
X149390763Y-59497829D01*
X149416418Y-59531801D01*
X149573988Y-59675446D01*
X149755271Y-59787692D01*
X149954092Y-59864715D01*
X150163680Y-59903894D01*
X150163682Y-59903894D01*
X150376898Y-59903894D01*
X150376900Y-59903894D01*
X150586488Y-59864715D01*
X150785309Y-59787692D01*
X150966592Y-59675446D01*
X151124162Y-59531801D01*
X151252656Y-59361649D01*
X151269204Y-59328415D01*
X151347693Y-59170788D01*
X151347693Y-59170787D01*
X151347695Y-59170783D01*
X151406046Y-58965704D01*
X151412319Y-58897999D01*
X151438104Y-58833063D01*
X151494904Y-58792375D01*
X151564685Y-58788855D01*
X151625292Y-58823619D01*
X151657483Y-58885632D01*
X151659790Y-58909441D01*
X151659790Y-59648250D01*
X151659792Y-59648276D01*
X151662703Y-59673381D01*
X151662705Y-59673385D01*
X151708083Y-59776158D01*
X151708084Y-59776159D01*
X151787525Y-59855600D01*
X151890299Y-59900979D01*
X151915425Y-59903894D01*
X153705154Y-59903893D01*
X153705169Y-59903891D01*
X153705172Y-59903891D01*
X153730277Y-59900980D01*
X153730278Y-59900979D01*
X153730281Y-59900979D01*
X153833055Y-59855600D01*
X153912496Y-59776159D01*
X153957875Y-59673385D01*
X153960790Y-59648259D01*
X153960790Y-58820000D01*
X158104341Y-58820000D01*
X158124936Y-59055403D01*
X158124938Y-59055413D01*
X158186094Y-59283655D01*
X158186096Y-59283659D01*
X158186097Y-59283663D01*
X158236031Y-59390745D01*
X158285964Y-59497828D01*
X158285965Y-59497830D01*
X158421505Y-59691402D01*
X158588597Y-59858494D01*
X158782169Y-59994034D01*
X158782171Y-59994035D01*
X158996337Y-60093903D01*
X159224592Y-60155063D01*
X159401034Y-60170500D01*
X159518966Y-60170500D01*
X159695408Y-60155063D01*
X159923663Y-60093903D01*
X160137829Y-59994035D01*
X160331401Y-59858495D01*
X160498495Y-59691401D01*
X160634035Y-59497830D01*
X160733903Y-59283663D01*
X160795063Y-59055408D01*
X160815659Y-58820000D01*
X160795063Y-58584592D01*
X160748626Y-58411285D01*
X160733905Y-58356344D01*
X160733904Y-58356343D01*
X160733903Y-58356337D01*
X160634035Y-58142171D01*
X160634034Y-58142169D01*
X160498494Y-57948597D01*
X160331402Y-57781505D01*
X160137830Y-57645965D01*
X160137828Y-57645964D01*
X159995926Y-57579794D01*
X159923663Y-57546097D01*
X159923659Y-57546096D01*
X159923655Y-57546094D01*
X159695413Y-57484938D01*
X159695403Y-57484936D01*
X159518966Y-57469500D01*
X159401034Y-57469500D01*
X159224596Y-57484936D01*
X159224586Y-57484938D01*
X158996344Y-57546094D01*
X158996335Y-57546098D01*
X158782171Y-57645964D01*
X158782169Y-57645965D01*
X158588597Y-57781505D01*
X158421506Y-57948597D01*
X158421501Y-57948604D01*
X158285967Y-58142165D01*
X158285965Y-58142169D01*
X158186098Y-58356335D01*
X158186094Y-58356344D01*
X158124938Y-58584586D01*
X158124936Y-58584596D01*
X158104341Y-58819999D01*
X158104341Y-58820000D01*
X153960790Y-58820000D01*
X153960789Y-57858530D01*
X153960787Y-57858511D01*
X153957876Y-57833406D01*
X153957875Y-57833404D01*
X153957875Y-57833403D01*
X153912496Y-57730629D01*
X153833055Y-57651188D01*
X153812414Y-57642074D01*
X153730282Y-57605809D01*
X153705155Y-57602894D01*
X151915433Y-57602894D01*
X151915407Y-57602896D01*
X151890302Y-57605807D01*
X151890298Y-57605809D01*
X151787525Y-57651187D01*
X151708084Y-57730628D01*
X151662705Y-57833400D01*
X151662705Y-57833402D01*
X151659790Y-57858525D01*
X151659790Y-58597345D01*
X151640105Y-58664384D01*
X151587301Y-58710139D01*
X151518143Y-58720083D01*
X151454587Y-58691058D01*
X151416813Y-58632280D01*
X151412319Y-58608785D01*
X151410077Y-58584592D01*
X151406046Y-58541084D01*
X151403789Y-58533153D01*
X151380800Y-58452355D01*
X151347695Y-58336005D01*
X151347693Y-58336000D01*
X151347693Y-58335999D01*
X151252657Y-58145140D01*
X151124162Y-57974987D01*
X151065696Y-57921688D01*
X150966592Y-57831342D01*
X150785309Y-57719096D01*
X150785307Y-57719095D01*
X150663305Y-57671832D01*
X150586488Y-57642073D01*
X150376900Y-57602894D01*
X150163680Y-57602894D01*
X149954092Y-57642073D01*
X149954089Y-57642073D01*
X149954089Y-57642074D01*
X149755272Y-57719095D01*
X149755270Y-57719096D01*
X149573989Y-57831341D01*
X149416417Y-57974987D01*
X149287922Y-58145140D01*
X149192886Y-58335999D01*
X149192886Y-58336001D01*
X149134534Y-58541083D01*
X149123761Y-58657345D01*
X149097975Y-58722282D01*
X149053420Y-58754198D01*
X148944912Y-58754198D01*
X148947159Y-58752588D01*
X148910787Y-58731725D01*
X148878597Y-58669712D01*
X148876819Y-58657345D01*
X148871259Y-58597345D01*
X148866046Y-58541084D01*
X148807695Y-58336005D01*
X148807693Y-58336000D01*
X148807693Y-58335999D01*
X148712657Y-58145140D01*
X148584162Y-57974987D01*
X148525696Y-57921688D01*
X148426592Y-57831342D01*
X148245309Y-57719096D01*
X148245307Y-57719095D01*
X148123305Y-57671832D01*
X148046488Y-57642073D01*
X147836900Y-57602894D01*
X147623680Y-57602894D01*
X147414092Y-57642073D01*
X147414089Y-57642073D01*
X147414089Y-57642074D01*
X147215272Y-57719095D01*
X147215270Y-57719096D01*
X147033989Y-57831341D01*
X146876417Y-57974987D01*
X146747924Y-58145138D01*
X146680966Y-58279609D01*
X146633463Y-58330846D01*
X146565800Y-58348267D01*
X146499460Y-58326341D01*
X146457584Y-58276742D01*
X146363890Y-58075816D01*
X146363889Y-58075814D01*
X146228403Y-57882320D01*
X146228398Y-57882314D01*
X146061372Y-57715288D01*
X145867868Y-57579793D01*
X145653782Y-57479964D01*
X145653776Y-57479961D01*
X145440290Y-57422758D01*
X145440290Y-58141092D01*
X145420605Y-58208131D01*
X145367801Y-58253886D01*
X145298645Y-58263830D01*
X145226056Y-58253394D01*
X145226053Y-58253394D01*
X145154527Y-58253394D01*
X145154523Y-58253394D01*
X145081935Y-58263830D01*
X145012777Y-58253886D01*
X144959974Y-58208130D01*
X144940290Y-58141092D01*
X144940290Y-57422758D01*
X144940289Y-57422758D01*
X144726803Y-57479961D01*
X144726797Y-57479964D01*
X144512712Y-57579793D01*
X144512710Y-57579794D01*
X144319216Y-57715280D01*
X144319210Y-57715285D01*
X144152181Y-57882314D01*
X144152176Y-57882320D01*
X144016690Y-58075814D01*
X144016689Y-58075816D01*
X143916860Y-58289901D01*
X143916857Y-58289907D01*
X143859654Y-58503393D01*
X143859654Y-58503394D01*
X144576943Y-58503394D01*
X144643982Y-58523079D01*
X144689737Y-58575883D01*
X144699681Y-58645041D01*
X144695921Y-58662327D01*
X144690290Y-58681505D01*
X144690290Y-58825283D01*
X144693752Y-58837075D01*
X144695921Y-58844461D01*
X144695920Y-58914330D01*
X144658145Y-58973108D01*
X144594589Y-59002132D01*
X144576943Y-59003394D01*
X143859654Y-59003394D01*
X140542513Y-59003394D01*
X140542512Y-57888289D01*
X140540191Y-57868273D01*
X140539599Y-57863165D01*
X140539598Y-57863163D01*
X140539598Y-57863162D01*
X140494219Y-57760388D01*
X140414778Y-57680947D01*
X140394137Y-57671833D01*
X140312005Y-57635568D01*
X140286878Y-57632653D01*
X138497156Y-57632653D01*
X138497130Y-57632655D01*
X138472025Y-57635566D01*
X138472021Y-57635568D01*
X138369248Y-57680946D01*
X138289807Y-57760387D01*
X138244428Y-57863159D01*
X138244428Y-57863161D01*
X138241513Y-57888284D01*
X138241513Y-58627104D01*
X138221828Y-58694143D01*
X138169024Y-58739898D01*
X138099866Y-58749842D01*
X138036310Y-58720817D01*
X137998536Y-58662039D01*
X137994042Y-58638544D01*
X137990993Y-58605642D01*
X137987769Y-58570843D01*
X137979301Y-58541083D01*
X137966690Y-58496759D01*
X137929418Y-58365764D01*
X137929416Y-58365759D01*
X137929416Y-58365758D01*
X137834380Y-58174899D01*
X137705885Y-58004746D01*
X137651308Y-57954992D01*
X137548315Y-57861101D01*
X137367032Y-57748855D01*
X137367030Y-57748854D01*
X137267621Y-57710343D01*
X137168211Y-57671832D01*
X136958623Y-57632653D01*
X136745403Y-57632653D01*
X136535815Y-57671832D01*
X136535812Y-57671832D01*
X136535812Y-57671833D01*
X136336995Y-57748854D01*
X136336993Y-57748855D01*
X136155712Y-57861100D01*
X135998140Y-58004746D01*
X135869645Y-58174899D01*
X135774609Y-58365758D01*
X135774609Y-58365760D01*
X135716257Y-58570842D01*
X135705484Y-58687104D01*
X135679698Y-58752041D01*
X135635143Y-58783957D01*
X135526635Y-58783957D01*
X135528882Y-58782347D01*
X135492510Y-58761484D01*
X135460320Y-58699471D01*
X135458542Y-58687104D01*
X135454042Y-58638544D01*
X135447769Y-58570843D01*
X135389418Y-58365764D01*
X135389416Y-58365759D01*
X135389416Y-58365758D01*
X135294380Y-58174899D01*
X135165885Y-58004746D01*
X135111308Y-57954992D01*
X135008315Y-57861101D01*
X134827032Y-57748855D01*
X134827030Y-57748854D01*
X134727621Y-57710343D01*
X134628211Y-57671832D01*
X134418623Y-57632653D01*
X134205403Y-57632653D01*
X133995815Y-57671832D01*
X133995812Y-57671832D01*
X133995812Y-57671833D01*
X133796995Y-57748854D01*
X133796993Y-57748855D01*
X133615712Y-57861100D01*
X133458140Y-58004746D01*
X133329647Y-58174897D01*
X133262689Y-58309368D01*
X133215186Y-58360605D01*
X133147523Y-58378026D01*
X133081183Y-58356100D01*
X133039307Y-58306501D01*
X132945613Y-58105575D01*
X132945612Y-58105573D01*
X132810126Y-57912079D01*
X132810121Y-57912073D01*
X132643095Y-57745047D01*
X132449591Y-57609552D01*
X132235505Y-57509723D01*
X132235499Y-57509720D01*
X132022013Y-57452517D01*
X132022013Y-58170851D01*
X132002328Y-58237890D01*
X131949524Y-58283645D01*
X131880368Y-58293589D01*
X131807779Y-58283153D01*
X131807776Y-58283153D01*
X131736250Y-58283153D01*
X131736246Y-58283153D01*
X131663658Y-58293589D01*
X131594500Y-58283645D01*
X131541697Y-58237889D01*
X131522013Y-58170851D01*
X131522013Y-57452517D01*
X131522012Y-57452517D01*
X131308526Y-57509720D01*
X131308520Y-57509723D01*
X131094435Y-57609552D01*
X131094433Y-57609553D01*
X130900939Y-57745039D01*
X130900933Y-57745044D01*
X130733904Y-57912073D01*
X130733899Y-57912079D01*
X130598413Y-58105573D01*
X130598412Y-58105575D01*
X130498583Y-58319660D01*
X130498580Y-58319666D01*
X130441377Y-58533152D01*
X130441377Y-58533153D01*
X131158666Y-58533153D01*
X131225705Y-58552838D01*
X131271460Y-58605642D01*
X131281404Y-58674800D01*
X131277644Y-58692086D01*
X131272013Y-58711264D01*
X131272013Y-58855042D01*
X131275475Y-58866834D01*
X131277644Y-58874220D01*
X131277643Y-58944089D01*
X131239868Y-59002867D01*
X131176312Y-59031891D01*
X131158666Y-59033153D01*
X130441377Y-59033153D01*
X125797010Y-59033153D01*
X125815659Y-58820000D01*
X125795063Y-58584592D01*
X125748626Y-58411285D01*
X125733905Y-58356344D01*
X125733904Y-58356343D01*
X125733903Y-58356337D01*
X125634035Y-58142171D01*
X125634034Y-58142169D01*
X125498494Y-57948597D01*
X125331402Y-57781505D01*
X125137830Y-57645965D01*
X125137828Y-57645964D01*
X124995926Y-57579794D01*
X124923663Y-57546097D01*
X124923659Y-57546096D01*
X124923655Y-57546094D01*
X124695413Y-57484938D01*
X124695403Y-57484936D01*
X124518966Y-57469500D01*
X124401034Y-57469500D01*
X124224596Y-57484936D01*
X124224586Y-57484938D01*
X123996344Y-57546094D01*
X123996335Y-57546098D01*
X123782171Y-57645964D01*
X123782169Y-57645965D01*
X123588597Y-57781505D01*
X123421506Y-57948597D01*
X123421501Y-57948604D01*
X123285967Y-58142165D01*
X123285965Y-58142169D01*
X123186098Y-58356335D01*
X123186094Y-58356344D01*
X123124938Y-58584586D01*
X123124936Y-58584596D01*
X123104341Y-58819999D01*
X123104341Y-58820000D01*
X121460542Y-58820000D01*
X121460585Y-58818376D01*
X121465737Y-58720083D01*
X121467490Y-58686614D01*
X121468739Y-58664384D01*
X121477803Y-58502972D01*
X121478464Y-58496789D01*
X121502611Y-58344331D01*
X121504027Y-58336001D01*
X121530227Y-58181796D01*
X121531451Y-58176196D01*
X121572425Y-58023279D01*
X121617083Y-57868268D01*
X121618764Y-57863254D01*
X121676127Y-57713815D01*
X121737366Y-57565972D01*
X121739379Y-57561606D01*
X121812511Y-57418078D01*
X121819688Y-57405090D01*
X121889655Y-57278494D01*
X121891867Y-57274808D01*
X121979980Y-57139127D01*
X121994130Y-57119182D01*
X122072154Y-57009220D01*
X122074486Y-57006143D01*
X122175655Y-56881209D01*
X122177537Y-56878998D01*
X122282773Y-56761239D01*
X122285092Y-56758787D01*
X122398787Y-56645092D01*
X122401239Y-56642773D01*
X122518998Y-56537537D01*
X122521209Y-56535655D01*
X122646143Y-56434486D01*
X122649220Y-56432154D01*
X122779127Y-56339980D01*
X122789046Y-56333537D01*
X122914808Y-56251867D01*
X122918494Y-56249655D01*
X123058078Y-56172511D01*
X123070063Y-56166403D01*
X123201606Y-56099379D01*
X123205972Y-56097366D01*
X123353815Y-56036127D01*
X123503254Y-55978764D01*
X123508268Y-55977083D01*
X123663279Y-55932425D01*
X123816183Y-55891454D01*
X123821810Y-55890225D01*
X123863849Y-55883082D01*
X123871682Y-55881752D01*
X123892450Y-55880000D01*
X160027550Y-55880000D01*
X160048319Y-55881752D01*
G37*
%TD.AperFunction*%
%TD*%
M02*
