%TF.GenerationSoftware,KiCad,Pcbnew,7.0.7*%
%TF.CreationDate,2025-08-05T19:35:54-07:00*%
%TF.ProjectId,stm32,73746d33-322e-46b6-9963-61645f706362,rev?*%
%TF.SameCoordinates,Original*%
%TF.FileFunction,Legend,Top*%
%TF.FilePolarity,Positive*%
%FSLAX46Y46*%
G04 Gerber Fmt 4.6, Leading zero omitted, Abs format (unit mm)*
G04 Created by KiCad (PCBNEW 7.0.7) date 2025-08-05 19:35:54*
%MOMM*%
%LPD*%
G01*
G04 APERTURE LIST*
%ADD10C,0.150000*%
%ADD11C,0.120000*%
G04 APERTURE END LIST*
D10*
X128497262Y-58735769D02*
X129259167Y-58735769D01*
X159339916Y-64881911D02*
X159339916Y-65691434D01*
X159339916Y-65691434D02*
X159387535Y-65786672D01*
X159387535Y-65786672D02*
X159435154Y-65834292D01*
X159435154Y-65834292D02*
X159530392Y-65881911D01*
X159530392Y-65881911D02*
X159720868Y-65881911D01*
X159720868Y-65881911D02*
X159816106Y-65834292D01*
X159816106Y-65834292D02*
X159863725Y-65786672D01*
X159863725Y-65786672D02*
X159911344Y-65691434D01*
X159911344Y-65691434D02*
X159911344Y-64881911D01*
X160339916Y-65834292D02*
X160482773Y-65881911D01*
X160482773Y-65881911D02*
X160720868Y-65881911D01*
X160720868Y-65881911D02*
X160816106Y-65834292D01*
X160816106Y-65834292D02*
X160863725Y-65786672D01*
X160863725Y-65786672D02*
X160911344Y-65691434D01*
X160911344Y-65691434D02*
X160911344Y-65596196D01*
X160911344Y-65596196D02*
X160863725Y-65500958D01*
X160863725Y-65500958D02*
X160816106Y-65453339D01*
X160816106Y-65453339D02*
X160720868Y-65405720D01*
X160720868Y-65405720D02*
X160530392Y-65358101D01*
X160530392Y-65358101D02*
X160435154Y-65310482D01*
X160435154Y-65310482D02*
X160387535Y-65262863D01*
X160387535Y-65262863D02*
X160339916Y-65167625D01*
X160339916Y-65167625D02*
X160339916Y-65072387D01*
X160339916Y-65072387D02*
X160387535Y-64977149D01*
X160387535Y-64977149D02*
X160435154Y-64929530D01*
X160435154Y-64929530D02*
X160530392Y-64881911D01*
X160530392Y-64881911D02*
X160768487Y-64881911D01*
X160768487Y-64881911D02*
X160911344Y-64929530D01*
X161673249Y-65358101D02*
X161816106Y-65405720D01*
X161816106Y-65405720D02*
X161863725Y-65453339D01*
X161863725Y-65453339D02*
X161911344Y-65548577D01*
X161911344Y-65548577D02*
X161911344Y-65691434D01*
X161911344Y-65691434D02*
X161863725Y-65786672D01*
X161863725Y-65786672D02*
X161816106Y-65834292D01*
X161816106Y-65834292D02*
X161720868Y-65881911D01*
X161720868Y-65881911D02*
X161339916Y-65881911D01*
X161339916Y-65881911D02*
X161339916Y-64881911D01*
X161339916Y-64881911D02*
X161673249Y-64881911D01*
X161673249Y-64881911D02*
X161768487Y-64929530D01*
X161768487Y-64929530D02*
X161816106Y-64977149D01*
X161816106Y-64977149D02*
X161863725Y-65072387D01*
X161863725Y-65072387D02*
X161863725Y-65167625D01*
X161863725Y-65167625D02*
X161816106Y-65262863D01*
X161816106Y-65262863D02*
X161768487Y-65310482D01*
X161768487Y-65310482D02*
X161673249Y-65358101D01*
X161673249Y-65358101D02*
X161339916Y-65358101D01*
X141907616Y-83910249D02*
X142669521Y-83910249D01*
X142094659Y-58779339D02*
X142856564Y-58779339D01*
X151474954Y-61806733D02*
X151617811Y-61854352D01*
X151617811Y-61854352D02*
X151855906Y-61854352D01*
X151855906Y-61854352D02*
X151951144Y-61806733D01*
X151951144Y-61806733D02*
X151998763Y-61759113D01*
X151998763Y-61759113D02*
X152046382Y-61663875D01*
X152046382Y-61663875D02*
X152046382Y-61568637D01*
X152046382Y-61568637D02*
X151998763Y-61473399D01*
X151998763Y-61473399D02*
X151951144Y-61425780D01*
X151951144Y-61425780D02*
X151855906Y-61378161D01*
X151855906Y-61378161D02*
X151665430Y-61330542D01*
X151665430Y-61330542D02*
X151570192Y-61282923D01*
X151570192Y-61282923D02*
X151522573Y-61235304D01*
X151522573Y-61235304D02*
X151474954Y-61140066D01*
X151474954Y-61140066D02*
X151474954Y-61044828D01*
X151474954Y-61044828D02*
X151522573Y-60949590D01*
X151522573Y-60949590D02*
X151570192Y-60901971D01*
X151570192Y-60901971D02*
X151665430Y-60854352D01*
X151665430Y-60854352D02*
X151903525Y-60854352D01*
X151903525Y-60854352D02*
X152046382Y-60901971D01*
X152379716Y-60854352D02*
X152617811Y-61854352D01*
X152617811Y-61854352D02*
X152808287Y-61140066D01*
X152808287Y-61140066D02*
X152998763Y-61854352D01*
X152998763Y-61854352D02*
X153236859Y-60854352D01*
X153617811Y-61854352D02*
X153617811Y-60854352D01*
X153617811Y-60854352D02*
X153855906Y-60854352D01*
X153855906Y-60854352D02*
X153998763Y-60901971D01*
X153998763Y-60901971D02*
X154094001Y-60997209D01*
X154094001Y-60997209D02*
X154141620Y-61092447D01*
X154141620Y-61092447D02*
X154189239Y-61282923D01*
X154189239Y-61282923D02*
X154189239Y-61425780D01*
X154189239Y-61425780D02*
X154141620Y-61616256D01*
X154141620Y-61616256D02*
X154094001Y-61711494D01*
X154094001Y-61711494D02*
X153998763Y-61806733D01*
X153998763Y-61806733D02*
X153855906Y-61854352D01*
X153855906Y-61854352D02*
X153617811Y-61854352D01*
X130355513Y-60724313D02*
X130355513Y-61533836D01*
X130355513Y-61533836D02*
X130403132Y-61629074D01*
X130403132Y-61629074D02*
X130450751Y-61676694D01*
X130450751Y-61676694D02*
X130545989Y-61724313D01*
X130545989Y-61724313D02*
X130736465Y-61724313D01*
X130736465Y-61724313D02*
X130831703Y-61676694D01*
X130831703Y-61676694D02*
X130879322Y-61629074D01*
X130879322Y-61629074D02*
X130926941Y-61533836D01*
X130926941Y-61533836D02*
X130926941Y-60724313D01*
X131355513Y-61438598D02*
X131831703Y-61438598D01*
X131260275Y-61724313D02*
X131593608Y-60724313D01*
X131593608Y-60724313D02*
X131926941Y-61724313D01*
X132831703Y-61724313D02*
X132498370Y-61248122D01*
X132260275Y-61724313D02*
X132260275Y-60724313D01*
X132260275Y-60724313D02*
X132641227Y-60724313D01*
X132641227Y-60724313D02*
X132736465Y-60771932D01*
X132736465Y-60771932D02*
X132784084Y-60819551D01*
X132784084Y-60819551D02*
X132831703Y-60914789D01*
X132831703Y-60914789D02*
X132831703Y-61057646D01*
X132831703Y-61057646D02*
X132784084Y-61152884D01*
X132784084Y-61152884D02*
X132736465Y-61200503D01*
X132736465Y-61200503D02*
X132641227Y-61248122D01*
X132641227Y-61248122D02*
X132260275Y-61248122D01*
X133117418Y-60724313D02*
X133688846Y-60724313D01*
X133403132Y-61724313D02*
X133403132Y-60724313D01*
X127920348Y-84591106D02*
X127920348Y-83591106D01*
X128348919Y-83686344D02*
X128396538Y-83638725D01*
X128396538Y-83638725D02*
X128491776Y-83591106D01*
X128491776Y-83591106D02*
X128729871Y-83591106D01*
X128729871Y-83591106D02*
X128825109Y-83638725D01*
X128825109Y-83638725D02*
X128872728Y-83686344D01*
X128872728Y-83686344D02*
X128920347Y-83781582D01*
X128920347Y-83781582D02*
X128920347Y-83876820D01*
X128920347Y-83876820D02*
X128872728Y-84019677D01*
X128872728Y-84019677D02*
X128301300Y-84591106D01*
X128301300Y-84591106D02*
X128920347Y-84591106D01*
X129920347Y-84495867D02*
X129872728Y-84543487D01*
X129872728Y-84543487D02*
X129729871Y-84591106D01*
X129729871Y-84591106D02*
X129634633Y-84591106D01*
X129634633Y-84591106D02*
X129491776Y-84543487D01*
X129491776Y-84543487D02*
X129396538Y-84448248D01*
X129396538Y-84448248D02*
X129348919Y-84353010D01*
X129348919Y-84353010D02*
X129301300Y-84162534D01*
X129301300Y-84162534D02*
X129301300Y-84019677D01*
X129301300Y-84019677D02*
X129348919Y-83829201D01*
X129348919Y-83829201D02*
X129396538Y-83733963D01*
X129396538Y-83733963D02*
X129491776Y-83638725D01*
X129491776Y-83638725D02*
X129634633Y-83591106D01*
X129634633Y-83591106D02*
X129729871Y-83591106D01*
X129729871Y-83591106D02*
X129872728Y-83638725D01*
X129872728Y-83638725D02*
X129920347Y-83686344D01*
X132653079Y-73845393D02*
X132605460Y-73893013D01*
X132605460Y-73893013D02*
X132462603Y-73940632D01*
X132462603Y-73940632D02*
X132367365Y-73940632D01*
X132367365Y-73940632D02*
X132224508Y-73893013D01*
X132224508Y-73893013D02*
X132129270Y-73797774D01*
X132129270Y-73797774D02*
X132081651Y-73702536D01*
X132081651Y-73702536D02*
X132034032Y-73512060D01*
X132034032Y-73512060D02*
X132034032Y-73369203D01*
X132034032Y-73369203D02*
X132081651Y-73178727D01*
X132081651Y-73178727D02*
X132129270Y-73083489D01*
X132129270Y-73083489D02*
X132224508Y-72988251D01*
X132224508Y-72988251D02*
X132367365Y-72940632D01*
X132367365Y-72940632D02*
X132462603Y-72940632D01*
X132462603Y-72940632D02*
X132605460Y-72988251D01*
X132605460Y-72988251D02*
X132653079Y-73035870D01*
X133510222Y-72940632D02*
X133319746Y-72940632D01*
X133319746Y-72940632D02*
X133224508Y-72988251D01*
X133224508Y-72988251D02*
X133176889Y-73035870D01*
X133176889Y-73035870D02*
X133081651Y-73178727D01*
X133081651Y-73178727D02*
X133034032Y-73369203D01*
X133034032Y-73369203D02*
X133034032Y-73750155D01*
X133034032Y-73750155D02*
X133081651Y-73845393D01*
X133081651Y-73845393D02*
X133129270Y-73893013D01*
X133129270Y-73893013D02*
X133224508Y-73940632D01*
X133224508Y-73940632D02*
X133414984Y-73940632D01*
X133414984Y-73940632D02*
X133510222Y-73893013D01*
X133510222Y-73893013D02*
X133557841Y-73845393D01*
X133557841Y-73845393D02*
X133605460Y-73750155D01*
X133605460Y-73750155D02*
X133605460Y-73512060D01*
X133605460Y-73512060D02*
X133557841Y-73416822D01*
X133557841Y-73416822D02*
X133510222Y-73369203D01*
X133510222Y-73369203D02*
X133414984Y-73321584D01*
X133414984Y-73321584D02*
X133224508Y-73321584D01*
X133224508Y-73321584D02*
X133129270Y-73369203D01*
X133129270Y-73369203D02*
X133081651Y-73416822D01*
X133081651Y-73416822D02*
X133034032Y-73512060D01*
X155460721Y-78357700D02*
X155460721Y-77357700D01*
X155460721Y-77357700D02*
X155698816Y-77357700D01*
X155698816Y-77357700D02*
X155841673Y-77405319D01*
X155841673Y-77405319D02*
X155936911Y-77500557D01*
X155936911Y-77500557D02*
X155984530Y-77595795D01*
X155984530Y-77595795D02*
X156032149Y-77786271D01*
X156032149Y-77786271D02*
X156032149Y-77929128D01*
X156032149Y-77929128D02*
X155984530Y-78119604D01*
X155984530Y-78119604D02*
X155936911Y-78214842D01*
X155936911Y-78214842D02*
X155841673Y-78310081D01*
X155841673Y-78310081D02*
X155698816Y-78357700D01*
X155698816Y-78357700D02*
X155460721Y-78357700D01*
X156984530Y-78357700D02*
X156413102Y-78357700D01*
X156698816Y-78357700D02*
X156698816Y-77357700D01*
X156698816Y-77357700D02*
X156603578Y-77500557D01*
X156603578Y-77500557D02*
X156508340Y-77595795D01*
X156508340Y-77595795D02*
X156413102Y-77643414D01*
X127990927Y-75559101D02*
X127943308Y-75606721D01*
X127943308Y-75606721D02*
X127800451Y-75654340D01*
X127800451Y-75654340D02*
X127705213Y-75654340D01*
X127705213Y-75654340D02*
X127562356Y-75606721D01*
X127562356Y-75606721D02*
X127467118Y-75511482D01*
X127467118Y-75511482D02*
X127419499Y-75416244D01*
X127419499Y-75416244D02*
X127371880Y-75225768D01*
X127371880Y-75225768D02*
X127371880Y-75082911D01*
X127371880Y-75082911D02*
X127419499Y-74892435D01*
X127419499Y-74892435D02*
X127467118Y-74797197D01*
X127467118Y-74797197D02*
X127562356Y-74701959D01*
X127562356Y-74701959D02*
X127705213Y-74654340D01*
X127705213Y-74654340D02*
X127800451Y-74654340D01*
X127800451Y-74654340D02*
X127943308Y-74701959D01*
X127943308Y-74701959D02*
X127990927Y-74749578D01*
X128324261Y-74654340D02*
X128990927Y-74654340D01*
X128990927Y-74654340D02*
X128562356Y-75654340D01*
X141538792Y-78306719D02*
X141491173Y-78354339D01*
X141491173Y-78354339D02*
X141348316Y-78401958D01*
X141348316Y-78401958D02*
X141253078Y-78401958D01*
X141253078Y-78401958D02*
X141110221Y-78354339D01*
X141110221Y-78354339D02*
X141014983Y-78259100D01*
X141014983Y-78259100D02*
X140967364Y-78163862D01*
X140967364Y-78163862D02*
X140919745Y-77973386D01*
X140919745Y-77973386D02*
X140919745Y-77830529D01*
X140919745Y-77830529D02*
X140967364Y-77640053D01*
X140967364Y-77640053D02*
X141014983Y-77544815D01*
X141014983Y-77544815D02*
X141110221Y-77449577D01*
X141110221Y-77449577D02*
X141253078Y-77401958D01*
X141253078Y-77401958D02*
X141348316Y-77401958D01*
X141348316Y-77401958D02*
X141491173Y-77449577D01*
X141491173Y-77449577D02*
X141538792Y-77497196D01*
X141872126Y-77401958D02*
X142491173Y-77401958D01*
X142491173Y-77401958D02*
X142157840Y-77782910D01*
X142157840Y-77782910D02*
X142300697Y-77782910D01*
X142300697Y-77782910D02*
X142395935Y-77830529D01*
X142395935Y-77830529D02*
X142443554Y-77878148D01*
X142443554Y-77878148D02*
X142491173Y-77973386D01*
X142491173Y-77973386D02*
X142491173Y-78211481D01*
X142491173Y-78211481D02*
X142443554Y-78306719D01*
X142443554Y-78306719D02*
X142395935Y-78354339D01*
X142395935Y-78354339D02*
X142300697Y-78401958D01*
X142300697Y-78401958D02*
X142014983Y-78401958D01*
X142014983Y-78401958D02*
X141919745Y-78354339D01*
X141919745Y-78354339D02*
X141872126Y-78306719D01*
X152310397Y-77964980D02*
X152262778Y-78012600D01*
X152262778Y-78012600D02*
X152119921Y-78060219D01*
X152119921Y-78060219D02*
X152024683Y-78060219D01*
X152024683Y-78060219D02*
X151881826Y-78012600D01*
X151881826Y-78012600D02*
X151786588Y-77917361D01*
X151786588Y-77917361D02*
X151738969Y-77822123D01*
X151738969Y-77822123D02*
X151691350Y-77631647D01*
X151691350Y-77631647D02*
X151691350Y-77488790D01*
X151691350Y-77488790D02*
X151738969Y-77298314D01*
X151738969Y-77298314D02*
X151786588Y-77203076D01*
X151786588Y-77203076D02*
X151881826Y-77107838D01*
X151881826Y-77107838D02*
X152024683Y-77060219D01*
X152024683Y-77060219D02*
X152119921Y-77060219D01*
X152119921Y-77060219D02*
X152262778Y-77107838D01*
X152262778Y-77107838D02*
X152310397Y-77155457D01*
X153262778Y-78060219D02*
X152691350Y-78060219D01*
X152977064Y-78060219D02*
X152977064Y-77060219D01*
X152977064Y-77060219D02*
X152881826Y-77203076D01*
X152881826Y-77203076D02*
X152786588Y-77298314D01*
X152786588Y-77298314D02*
X152691350Y-77345933D01*
X153596112Y-77060219D02*
X154215159Y-77060219D01*
X154215159Y-77060219D02*
X153881826Y-77441171D01*
X153881826Y-77441171D02*
X154024683Y-77441171D01*
X154024683Y-77441171D02*
X154119921Y-77488790D01*
X154119921Y-77488790D02*
X154167540Y-77536409D01*
X154167540Y-77536409D02*
X154215159Y-77631647D01*
X154215159Y-77631647D02*
X154215159Y-77869742D01*
X154215159Y-77869742D02*
X154167540Y-77964980D01*
X154167540Y-77964980D02*
X154119921Y-78012600D01*
X154119921Y-78012600D02*
X154024683Y-78060219D01*
X154024683Y-78060219D02*
X153738969Y-78060219D01*
X153738969Y-78060219D02*
X153643731Y-78012600D01*
X153643731Y-78012600D02*
X153596112Y-77964980D01*
X129422714Y-73087547D02*
X129375095Y-73135167D01*
X129375095Y-73135167D02*
X129232238Y-73182786D01*
X129232238Y-73182786D02*
X129137000Y-73182786D01*
X129137000Y-73182786D02*
X128994143Y-73135167D01*
X128994143Y-73135167D02*
X128898905Y-73039928D01*
X128898905Y-73039928D02*
X128851286Y-72944690D01*
X128851286Y-72944690D02*
X128803667Y-72754214D01*
X128803667Y-72754214D02*
X128803667Y-72611357D01*
X128803667Y-72611357D02*
X128851286Y-72420881D01*
X128851286Y-72420881D02*
X128898905Y-72325643D01*
X128898905Y-72325643D02*
X128994143Y-72230405D01*
X128994143Y-72230405D02*
X129137000Y-72182786D01*
X129137000Y-72182786D02*
X129232238Y-72182786D01*
X129232238Y-72182786D02*
X129375095Y-72230405D01*
X129375095Y-72230405D02*
X129422714Y-72278024D01*
X130375095Y-73182786D02*
X129803667Y-73182786D01*
X130089381Y-73182786D02*
X130089381Y-72182786D01*
X130089381Y-72182786D02*
X129994143Y-72325643D01*
X129994143Y-72325643D02*
X129898905Y-72420881D01*
X129898905Y-72420881D02*
X129803667Y-72468500D01*
X131327476Y-73182786D02*
X130756048Y-73182786D01*
X131041762Y-73182786D02*
X131041762Y-72182786D01*
X131041762Y-72182786D02*
X130946524Y-72325643D01*
X130946524Y-72325643D02*
X130851286Y-72420881D01*
X130851286Y-72420881D02*
X130756048Y-72468500D01*
X134106853Y-67030219D02*
X134059234Y-67077839D01*
X134059234Y-67077839D02*
X133916377Y-67125458D01*
X133916377Y-67125458D02*
X133821139Y-67125458D01*
X133821139Y-67125458D02*
X133678282Y-67077839D01*
X133678282Y-67077839D02*
X133583044Y-66982600D01*
X133583044Y-66982600D02*
X133535425Y-66887362D01*
X133535425Y-66887362D02*
X133487806Y-66696886D01*
X133487806Y-66696886D02*
X133487806Y-66554029D01*
X133487806Y-66554029D02*
X133535425Y-66363553D01*
X133535425Y-66363553D02*
X133583044Y-66268315D01*
X133583044Y-66268315D02*
X133678282Y-66173077D01*
X133678282Y-66173077D02*
X133821139Y-66125458D01*
X133821139Y-66125458D02*
X133916377Y-66125458D01*
X133916377Y-66125458D02*
X134059234Y-66173077D01*
X134059234Y-66173077D02*
X134106853Y-66220696D01*
X134963996Y-66458791D02*
X134963996Y-67125458D01*
X134725901Y-66077839D02*
X134487806Y-66792124D01*
X134487806Y-66792124D02*
X135106853Y-66792124D01*
X128041628Y-77181540D02*
X127994009Y-77229160D01*
X127994009Y-77229160D02*
X127851152Y-77276779D01*
X127851152Y-77276779D02*
X127755914Y-77276779D01*
X127755914Y-77276779D02*
X127613057Y-77229160D01*
X127613057Y-77229160D02*
X127517819Y-77133921D01*
X127517819Y-77133921D02*
X127470200Y-77038683D01*
X127470200Y-77038683D02*
X127422581Y-76848207D01*
X127422581Y-76848207D02*
X127422581Y-76705350D01*
X127422581Y-76705350D02*
X127470200Y-76514874D01*
X127470200Y-76514874D02*
X127517819Y-76419636D01*
X127517819Y-76419636D02*
X127613057Y-76324398D01*
X127613057Y-76324398D02*
X127755914Y-76276779D01*
X127755914Y-76276779D02*
X127851152Y-76276779D01*
X127851152Y-76276779D02*
X127994009Y-76324398D01*
X127994009Y-76324398D02*
X128041628Y-76372017D01*
X128613057Y-76705350D02*
X128517819Y-76657731D01*
X128517819Y-76657731D02*
X128470200Y-76610112D01*
X128470200Y-76610112D02*
X128422581Y-76514874D01*
X128422581Y-76514874D02*
X128422581Y-76467255D01*
X128422581Y-76467255D02*
X128470200Y-76372017D01*
X128470200Y-76372017D02*
X128517819Y-76324398D01*
X128517819Y-76324398D02*
X128613057Y-76276779D01*
X128613057Y-76276779D02*
X128803533Y-76276779D01*
X128803533Y-76276779D02*
X128898771Y-76324398D01*
X128898771Y-76324398D02*
X128946390Y-76372017D01*
X128946390Y-76372017D02*
X128994009Y-76467255D01*
X128994009Y-76467255D02*
X128994009Y-76514874D01*
X128994009Y-76514874D02*
X128946390Y-76610112D01*
X128946390Y-76610112D02*
X128898771Y-76657731D01*
X128898771Y-76657731D02*
X128803533Y-76705350D01*
X128803533Y-76705350D02*
X128613057Y-76705350D01*
X128613057Y-76705350D02*
X128517819Y-76752969D01*
X128517819Y-76752969D02*
X128470200Y-76800588D01*
X128470200Y-76800588D02*
X128422581Y-76895826D01*
X128422581Y-76895826D02*
X128422581Y-77086302D01*
X128422581Y-77086302D02*
X128470200Y-77181540D01*
X128470200Y-77181540D02*
X128517819Y-77229160D01*
X128517819Y-77229160D02*
X128613057Y-77276779D01*
X128613057Y-77276779D02*
X128803533Y-77276779D01*
X128803533Y-77276779D02*
X128898771Y-77229160D01*
X128898771Y-77229160D02*
X128946390Y-77181540D01*
X128946390Y-77181540D02*
X128994009Y-77086302D01*
X128994009Y-77086302D02*
X128994009Y-76895826D01*
X128994009Y-76895826D02*
X128946390Y-76800588D01*
X128946390Y-76800588D02*
X128898771Y-76752969D01*
X128898771Y-76752969D02*
X128803533Y-76705350D01*
X158019883Y-78907040D02*
X157686550Y-78430849D01*
X157448455Y-78907040D02*
X157448455Y-77907040D01*
X157448455Y-77907040D02*
X157829407Y-77907040D01*
X157829407Y-77907040D02*
X157924645Y-77954659D01*
X157924645Y-77954659D02*
X157972264Y-78002278D01*
X157972264Y-78002278D02*
X158019883Y-78097516D01*
X158019883Y-78097516D02*
X158019883Y-78240373D01*
X158019883Y-78240373D02*
X157972264Y-78335611D01*
X157972264Y-78335611D02*
X157924645Y-78383230D01*
X157924645Y-78383230D02*
X157829407Y-78430849D01*
X157829407Y-78430849D02*
X157448455Y-78430849D01*
X158353217Y-77907040D02*
X158972264Y-77907040D01*
X158972264Y-77907040D02*
X158638931Y-78287992D01*
X158638931Y-78287992D02*
X158781788Y-78287992D01*
X158781788Y-78287992D02*
X158877026Y-78335611D01*
X158877026Y-78335611D02*
X158924645Y-78383230D01*
X158924645Y-78383230D02*
X158972264Y-78478468D01*
X158972264Y-78478468D02*
X158972264Y-78716563D01*
X158972264Y-78716563D02*
X158924645Y-78811801D01*
X158924645Y-78811801D02*
X158877026Y-78859421D01*
X158877026Y-78859421D02*
X158781788Y-78907040D01*
X158781788Y-78907040D02*
X158496074Y-78907040D01*
X158496074Y-78907040D02*
X158400836Y-78859421D01*
X158400836Y-78859421D02*
X158353217Y-78811801D01*
X147457669Y-71668214D02*
X147410050Y-71715834D01*
X147410050Y-71715834D02*
X147267193Y-71763453D01*
X147267193Y-71763453D02*
X147171955Y-71763453D01*
X147171955Y-71763453D02*
X147029098Y-71715834D01*
X147029098Y-71715834D02*
X146933860Y-71620595D01*
X146933860Y-71620595D02*
X146886241Y-71525357D01*
X146886241Y-71525357D02*
X146838622Y-71334881D01*
X146838622Y-71334881D02*
X146838622Y-71192024D01*
X146838622Y-71192024D02*
X146886241Y-71001548D01*
X146886241Y-71001548D02*
X146933860Y-70906310D01*
X146933860Y-70906310D02*
X147029098Y-70811072D01*
X147029098Y-70811072D02*
X147171955Y-70763453D01*
X147171955Y-70763453D02*
X147267193Y-70763453D01*
X147267193Y-70763453D02*
X147410050Y-70811072D01*
X147410050Y-70811072D02*
X147457669Y-70858691D01*
X148410050Y-71763453D02*
X147838622Y-71763453D01*
X148124336Y-71763453D02*
X148124336Y-70763453D01*
X148124336Y-70763453D02*
X148029098Y-70906310D01*
X148029098Y-70906310D02*
X147933860Y-71001548D01*
X147933860Y-71001548D02*
X147838622Y-71049167D01*
X148791003Y-70858691D02*
X148838622Y-70811072D01*
X148838622Y-70811072D02*
X148933860Y-70763453D01*
X148933860Y-70763453D02*
X149171955Y-70763453D01*
X149171955Y-70763453D02*
X149267193Y-70811072D01*
X149267193Y-70811072D02*
X149314812Y-70858691D01*
X149314812Y-70858691D02*
X149362431Y-70953929D01*
X149362431Y-70953929D02*
X149362431Y-71049167D01*
X149362431Y-71049167D02*
X149314812Y-71192024D01*
X149314812Y-71192024D02*
X148743384Y-71763453D01*
X148743384Y-71763453D02*
X149362431Y-71763453D01*
X147709317Y-67453857D02*
X147375984Y-66977666D01*
X147137889Y-67453857D02*
X147137889Y-66453857D01*
X147137889Y-66453857D02*
X147518841Y-66453857D01*
X147518841Y-66453857D02*
X147614079Y-66501476D01*
X147614079Y-66501476D02*
X147661698Y-66549095D01*
X147661698Y-66549095D02*
X147709317Y-66644333D01*
X147709317Y-66644333D02*
X147709317Y-66787190D01*
X147709317Y-66787190D02*
X147661698Y-66882428D01*
X147661698Y-66882428D02*
X147614079Y-66930047D01*
X147614079Y-66930047D02*
X147518841Y-66977666D01*
X147518841Y-66977666D02*
X147137889Y-66977666D01*
X148090270Y-66549095D02*
X148137889Y-66501476D01*
X148137889Y-66501476D02*
X148233127Y-66453857D01*
X148233127Y-66453857D02*
X148471222Y-66453857D01*
X148471222Y-66453857D02*
X148566460Y-66501476D01*
X148566460Y-66501476D02*
X148614079Y-66549095D01*
X148614079Y-66549095D02*
X148661698Y-66644333D01*
X148661698Y-66644333D02*
X148661698Y-66739571D01*
X148661698Y-66739571D02*
X148614079Y-66882428D01*
X148614079Y-66882428D02*
X148042651Y-67453857D01*
X148042651Y-67453857D02*
X148661698Y-67453857D01*
X134308109Y-64882466D02*
X134260490Y-64930086D01*
X134260490Y-64930086D02*
X134117633Y-64977705D01*
X134117633Y-64977705D02*
X134022395Y-64977705D01*
X134022395Y-64977705D02*
X133879538Y-64930086D01*
X133879538Y-64930086D02*
X133784300Y-64834847D01*
X133784300Y-64834847D02*
X133736681Y-64739609D01*
X133736681Y-64739609D02*
X133689062Y-64549133D01*
X133689062Y-64549133D02*
X133689062Y-64406276D01*
X133689062Y-64406276D02*
X133736681Y-64215800D01*
X133736681Y-64215800D02*
X133784300Y-64120562D01*
X133784300Y-64120562D02*
X133879538Y-64025324D01*
X133879538Y-64025324D02*
X134022395Y-63977705D01*
X134022395Y-63977705D02*
X134117633Y-63977705D01*
X134117633Y-63977705D02*
X134260490Y-64025324D01*
X134260490Y-64025324D02*
X134308109Y-64072943D01*
X135260490Y-64977705D02*
X134689062Y-64977705D01*
X134974776Y-64977705D02*
X134974776Y-63977705D01*
X134974776Y-63977705D02*
X134879538Y-64120562D01*
X134879538Y-64120562D02*
X134784300Y-64215800D01*
X134784300Y-64215800D02*
X134689062Y-64263419D01*
X142199029Y-78868426D02*
X142199029Y-79677949D01*
X142199029Y-79677949D02*
X142246648Y-79773187D01*
X142246648Y-79773187D02*
X142294267Y-79820807D01*
X142294267Y-79820807D02*
X142389505Y-79868426D01*
X142389505Y-79868426D02*
X142579981Y-79868426D01*
X142579981Y-79868426D02*
X142675219Y-79820807D01*
X142675219Y-79820807D02*
X142722838Y-79773187D01*
X142722838Y-79773187D02*
X142770457Y-79677949D01*
X142770457Y-79677949D02*
X142770457Y-78868426D01*
X143199029Y-78963664D02*
X143246648Y-78916045D01*
X143246648Y-78916045D02*
X143341886Y-78868426D01*
X143341886Y-78868426D02*
X143579981Y-78868426D01*
X143579981Y-78868426D02*
X143675219Y-78916045D01*
X143675219Y-78916045D02*
X143722838Y-78963664D01*
X143722838Y-78963664D02*
X143770457Y-79058902D01*
X143770457Y-79058902D02*
X143770457Y-79154140D01*
X143770457Y-79154140D02*
X143722838Y-79296997D01*
X143722838Y-79296997D02*
X143151410Y-79868426D01*
X143151410Y-79868426D02*
X143770457Y-79868426D01*
X144789838Y-66507530D02*
X144742219Y-66555150D01*
X144742219Y-66555150D02*
X144599362Y-66602769D01*
X144599362Y-66602769D02*
X144504124Y-66602769D01*
X144504124Y-66602769D02*
X144361267Y-66555150D01*
X144361267Y-66555150D02*
X144266029Y-66459911D01*
X144266029Y-66459911D02*
X144218410Y-66364673D01*
X144218410Y-66364673D02*
X144170791Y-66174197D01*
X144170791Y-66174197D02*
X144170791Y-66031340D01*
X144170791Y-66031340D02*
X144218410Y-65840864D01*
X144218410Y-65840864D02*
X144266029Y-65745626D01*
X144266029Y-65745626D02*
X144361267Y-65650388D01*
X144361267Y-65650388D02*
X144504124Y-65602769D01*
X144504124Y-65602769D02*
X144599362Y-65602769D01*
X144599362Y-65602769D02*
X144742219Y-65650388D01*
X144742219Y-65650388D02*
X144789838Y-65698007D01*
X145170791Y-65698007D02*
X145218410Y-65650388D01*
X145218410Y-65650388D02*
X145313648Y-65602769D01*
X145313648Y-65602769D02*
X145551743Y-65602769D01*
X145551743Y-65602769D02*
X145646981Y-65650388D01*
X145646981Y-65650388D02*
X145694600Y-65698007D01*
X145694600Y-65698007D02*
X145742219Y-65793245D01*
X145742219Y-65793245D02*
X145742219Y-65888483D01*
X145742219Y-65888483D02*
X145694600Y-66031340D01*
X145694600Y-66031340D02*
X145123172Y-66602769D01*
X145123172Y-66602769D02*
X145742219Y-66602769D01*
D11*
%TO.C,C6*%
X132489885Y-71880752D02*
X132489885Y-71665080D01*
X133209885Y-71880752D02*
X133209885Y-71665080D01*
%TO.C,SW1*%
X123989000Y-62762828D02*
X123199000Y-62762828D01*
X122189000Y-63362828D02*
X122189000Y-69062828D01*
X125039000Y-64612828D02*
X125039000Y-66312828D01*
X125039000Y-67612828D02*
X125039000Y-67812828D01*
X123199000Y-69662828D02*
X123989000Y-69662828D01*
%TO.C,FB1*%
X133387746Y-75824242D02*
X133387746Y-76149800D01*
X132367746Y-75824242D02*
X132367746Y-76149800D01*
%TO.C,R1*%
X127547254Y-65637288D02*
X127547254Y-65330006D01*
X128307254Y-65637288D02*
X128307254Y-65330006D01*
%TO.C,D1*%
X156933816Y-78886144D02*
X155463816Y-78886144D01*
X155463816Y-78886144D02*
X155463816Y-81171144D01*
X156933816Y-81171144D02*
X156933816Y-78886144D01*
%TO.C,J2*%
X140722013Y-57453153D02*
X140722013Y-58783153D01*
X139392013Y-57453153D02*
X140722013Y-57453153D01*
X138122013Y-57453153D02*
X130442013Y-57453153D01*
X138122013Y-57453153D02*
X138122013Y-60113153D01*
X130442013Y-57453153D02*
X130442013Y-60113153D01*
X138122013Y-60113153D02*
X130442013Y-60113153D01*
%TO.C,C7*%
X130805430Y-75559521D02*
X130589758Y-75559521D01*
X130805430Y-74839521D02*
X130589758Y-74839521D01*
%TO.C,C3*%
X141813295Y-77147139D02*
X141597623Y-77147139D01*
X141813295Y-76427139D02*
X141597623Y-76427139D01*
%TO.C,R5*%
X136422436Y-79961650D02*
X136729718Y-79961650D01*
X136422436Y-80721650D02*
X136729718Y-80721650D01*
%TO.C,C13*%
X152218255Y-80348462D02*
X152218255Y-79825958D01*
X153688255Y-80348462D02*
X153688255Y-79825958D01*
%TO.C,C11*%
X130982197Y-70760021D02*
X130982197Y-70544349D01*
X131702197Y-70760021D02*
X131702197Y-70544349D01*
%TO.C,J4*%
X130617324Y-85243371D02*
X130617324Y-83913371D01*
X131947324Y-85243371D02*
X130617324Y-85243371D01*
X133217324Y-85243371D02*
X140897324Y-85243371D01*
X133217324Y-85243371D02*
X133217324Y-82583371D01*
X140897324Y-85243371D02*
X140897324Y-82583371D01*
X133217324Y-82583371D02*
X140897324Y-82583371D01*
D10*
%TO.C,J1*%
X157599000Y-75470000D02*
X158999000Y-75470000D01*
X161399000Y-75470000D02*
X161549000Y-75470000D01*
X161549000Y-75470000D02*
X161549000Y-75170000D01*
X161549000Y-75170000D02*
X161999000Y-75170000D01*
X155424000Y-73120000D02*
X155849000Y-73120000D01*
X155849000Y-73120000D02*
X155849000Y-74120000D01*
X155424000Y-72395000D02*
X155424000Y-73120000D01*
X155849000Y-69520000D02*
X155849000Y-68520000D01*
X161549000Y-67470000D02*
X161549000Y-67170000D01*
X161999000Y-67470000D02*
X161549000Y-67470000D01*
X158999000Y-67170000D02*
X157599000Y-67170000D01*
X161549000Y-67170000D02*
X161399000Y-67170000D01*
D11*
%TO.C,C4*%
X132491103Y-67675813D02*
X132491103Y-67460141D01*
X133211103Y-67675813D02*
X133211103Y-67460141D01*
%TO.C,C8*%
X130856131Y-77181960D02*
X130640459Y-77181960D01*
X130856131Y-76461960D02*
X130640459Y-76461960D01*
%TO.C,Y1*%
X130411267Y-67758724D02*
X127111267Y-67758724D01*
X127111267Y-67758724D02*
X127111267Y-71758724D01*
%TO.C,R3*%
X158036782Y-76655026D02*
X158344064Y-76655026D01*
X158036782Y-77415026D02*
X158344064Y-77415026D01*
%TO.C,C12*%
X147839275Y-72253634D02*
X148361779Y-72253634D01*
X147839275Y-73723634D02*
X148361779Y-73723634D01*
%TO.C,R2*%
X148281653Y-68707222D02*
X148281653Y-69014504D01*
X147521653Y-68707222D02*
X147521653Y-69014504D01*
%TO.C,C10*%
X130942302Y-68766560D02*
X130942302Y-68550888D01*
X131662302Y-68766560D02*
X131662302Y-68550888D01*
%TO.C,C1*%
X136183707Y-64156000D02*
X136399379Y-64156000D01*
X136183707Y-64876000D02*
X136399379Y-64876000D01*
%TO.C,C9*%
X136247290Y-76322020D02*
X136462962Y-76322020D01*
X136247290Y-77042020D02*
X136462962Y-77042020D01*
%TO.C,J3*%
X154140290Y-57423394D02*
X154140290Y-58753394D01*
X152810290Y-57423394D02*
X154140290Y-57423394D01*
X151540290Y-57423394D02*
X143860290Y-57423394D01*
X151540290Y-57423394D02*
X151540290Y-60083394D01*
X143860290Y-57423394D02*
X143860290Y-60083394D01*
X151540290Y-60083394D02*
X143860290Y-60083394D01*
%TO.C,U2*%
X151387955Y-74796566D02*
X151387955Y-80806566D01*
X144567955Y-77046566D02*
X144567955Y-80806566D01*
X151387955Y-80806566D02*
X150127955Y-80806566D01*
X144567955Y-80806566D02*
X145827955Y-80806566D01*
%TO.C,U1*%
X135187579Y-67161882D02*
X135187579Y-67611882D01*
X135187579Y-67611882D02*
X133897579Y-67611882D01*
X135187579Y-74381882D02*
X135187579Y-73931882D01*
X135637579Y-67161882D02*
X135187579Y-67161882D01*
X135637579Y-74381882D02*
X135187579Y-74381882D01*
X141957579Y-67161882D02*
X142407579Y-67161882D01*
X141957579Y-74381882D02*
X142407579Y-74381882D01*
X142407579Y-67161882D02*
X142407579Y-67611882D01*
X142407579Y-74381882D02*
X142407579Y-73931882D01*
%TO.C,C5*%
X136104218Y-62482000D02*
X136385378Y-62482000D01*
X136104218Y-63502000D02*
X136385378Y-63502000D01*
%TO.C,C2*%
X145309262Y-68140308D02*
X145309262Y-68355980D01*
X144589262Y-68140308D02*
X144589262Y-68355980D01*
%TO.C,R4*%
X134302602Y-80733970D02*
X133995320Y-80733970D01*
X134302602Y-79973970D02*
X133995320Y-79973970D01*
%TD*%
M02*
